<?xml version="1.0" encoding="utf-8"?><svg xmlns="http://www.w3.org/2000/svg" xmlns:xlink="http://www.w3.org/1999/xlink"><symbol viewBox="0 0 0 0" id="_sprite" xmlns="http://www.w3.org/2000/svg"/><symbol viewBox="0 0 32 32" id="accessible_24px_outlined" xmlns="http://www.w3.org/2000/svg"><path fill-rule="evenodd" clip-rule="evenodd" d="M16 2.667A2.667 2.667 0 1016 8a2.667 2.667 0 000-5.333zm9.334 14.666v-2.666c-2.054.026-4.12-1-5.427-2.44l-1.72-1.907a2.58 2.58 0 00-.813-.6c-.007 0-.01-.004-.014-.007-.003-.003-.006-.006-.013-.006h-.013c-.467-.267-1-.4-1.587-.347-1.4.12-2.413 1.36-2.413 2.76V20c0 1.466 1.2 2.666 2.666 2.666h6.667v6.667h2.667V22c0-1.467-1.2-2.667-2.667-2.667h-4v-4.6c1.72 1.427 4.333 2.587 6.667 2.6zm-16 5.334c0 2.213 1.786 4 4 4A4.005 4.005 0 0017.107 24h2.76A6.667 6.667 0 1112 16.133v2.76c-1.546.56-2.666 2.027-2.666 3.773z"/></symbol><symbol viewBox="0 0 36 26" id="arrow" xmlns="http://www.w3.org/2000/svg"><path d="M23.25.75l-2.468 2.467 8.015 8.033H.5v3.5h28.297l-8.032 8.032 2.485 2.468L35.5 13 23.25.75z"/></symbol><symbol viewBox="0 0 42 42" id="arrow-down" xmlns="http://www.w3.org/2000/svg"><path d="M33.25 26.25l-2.468-2.468-8.032 8.015V3.5h-3.5v28.297l-8.033-8.032L8.75 26.25 21 38.5l12.25-12.25z"/></symbol><symbol viewBox="0 0 16 17" id="arrow-left" xmlns="http://www.w3.org/2000/svg"><path fill-rule="evenodd" clip-rule="evenodd" d="M10.586 9.5H2v-2h8.586L7.293 4.207l1.414-1.414L14.414 8.5l-5.707 5.707-1.414-1.414L10.586 9.5z"/></symbol><symbol viewBox="0 0 10 6" id="arrow_drop_down_24px" xmlns="http://www.w3.org/2000/svg"><path d="M0 .5l5 5 5-5H0z"/></symbol><symbol viewBox="0 0 40 40" id="burger" xmlns="http://www.w3.org/2000/svg"><rect x="4.5" y="6.5" width="31" height="3" rx="1.5"/><rect x="4.5" y="18.5" width="31" height="3" rx="1.5"/><rect x="4.5" y="30.5" width="31" height="3" rx="1.5"/></symbol><symbol viewBox="0 0 16 19" id="bus" xmlns="http://www.w3.org/2000/svg"><path d="M0 14c0 .88.39 1.67 1 2.22V18c0 .55.45 1 1 1h1c.55 0 1-.45 1-1v-1h8v1c0 .55.45 1 1 1h1c.55 0 1-.45 1-1v-1.78c.61-.55 1-1.34 1-2.22V4c0-3.5-3.58-4-8-4S0 .5 0 4v10zm3.5 1c-.83 0-1.5-.67-1.5-1.5S2.67 12 3.5 12s1.5.67 1.5 1.5S4.33 15 3.5 15zm9 0c-.83 0-1.5-.67-1.5-1.5s.67-1.5 1.5-1.5 1.5.67 1.5 1.5-.67 1.5-1.5 1.5zM14 9H2V4h12v5z"/></symbol><symbol viewBox="0 0 24 24" id="calendar" xmlns="http://www.w3.org/2000/svg"><path fill-rule="evenodd" clip-rule="evenodd" d="M6 6h2V5h8v1h2V5h2v3H4V5h2v1zm-2 4v10h16V10H4zm4-7h8V2h2v1h2a2 2 0 012 2v15a2 2 0 01-2 2H4a2 2 0 01-2-2V5a2 2 0 012-2h2V2h2v1z"/></symbol><symbol viewBox="0 0 24 24" id="close" xmlns="http://www.w3.org/2000/svg"><path d="M0 22.154L22.154 0 24 1.846 1.846 24 0 22.154z"/><path d="M1.846 0L24 22.154 22.154 24 0 1.846 1.846 0z"/></symbol><symbol viewBox="0 0 32 32" id="ear-svgrepo-com_2" xmlns="http://www.w3.org/2000/svg"><path d="M23.904 3.475C21.74 1.234 18.934 0 16 0 9.851 0 4.85 5.003 4.85 11.152a1.455 1.455 0 002.909 0c0-4.545 3.697-8.243 8.242-8.243 4.718 0 8.243 4.352 8.243 8.242 0 4.351-4.669 11.317-6.476 13.645-1.403 1.754-3.255 3.805-3.967 4.295h-3.618a1.455 1.455 0 000 2.909h3.879c.813 0 1.67-.463 3.869-2.906 1.106-1.23 2.074-2.438 2.115-2.488l.012-.016c.29-.372 7.095-9.193 7.095-15.438 0-2.74-1.184-5.539-3.248-7.677z"/><path d="M12.121 21.334a1.455 1.455 0 000 2.909 4.369 4.369 0 004.364-4.364 4.37 4.37 0 00-2.909-4.114v-4.613A2.427 2.427 0 0116 8.727a2.427 2.427 0 012.425 2.425 1.454 1.454 0 102.909 0A5.34 5.34 0 0016 5.818a5.34 5.34 0 00-5.333 5.334v5.818c0 .803.651 1.454 1.454 1.454.803 0 1.455.653 1.455 1.455s-.652 1.454-1.455 1.454z"/></symbol><symbol viewBox="0 0 24 24" id="facebook" xmlns="http://www.w3.org/2000/svg"><path fill-rule="evenodd" clip-rule="evenodd" d="M15.724 24h6.62A1.66 1.66 0 0024 22.345V1.655A1.66 1.66 0 0022.345 0H1.655A1.66 1.66 0 000 1.655v20.69C0 23.255.745 24 1.655 24h9.931v-8.276h-3.31v-4.138h3.31V9.103c0-2.606 1.986-4.758 4.552-4.965h4.138v4.138h-3.724a.83.83 0 00-.828.827v2.483h4.138v4.138h-4.138V24z"/></symbol><symbol viewBox="0 0 32 32" id="flag-for-flag-ukraine-svgrepo-com" xmlns="http://www.w3.org/2000/svg"><g clip-path="url(#amclip0_1403_9109)"><path d="M28.444 4.445H3.556A3.556 3.556 0 000 8.001v8h32V8a3.556 3.556 0 00-3.556-3.556z"/><path d="M32 24a3.556 3.556 0 01-3.556 3.556H3.556A3.556 3.556 0 010 24v-8h32v8z"/></g><defs><clipPath id="amclip0_1403_9109"><path d="M0 0h32v32H0z"/></clipPath></defs></symbol><symbol viewBox="0 0 32 32" id="flag-for-flag-united-states-svgrepo-com" xmlns="http://www.w3.org/2000/svg"><g clip-path="url(#anclip0_1403_9108)"><path d="M31.507 6.223a3.54 3.54 0 00-3.063-1.778H16v1.778h15.507zM0 22.223h32v1.778H0v-1.778zm16-7.111h16v1.778H16v-1.778zm0-3.556h16v1.778H16v-1.778zM0 18.668h32v1.777H0v-1.777zm3.556 8.888h24.888a3.54 3.54 0 003.063-1.777H.493a3.54 3.54 0 003.063 1.777zM16 8.001h16v1.778H16V8z"/><path d="M.06 24.604c.016.083.032.165.053.246.023.09.051.176.082.263.079.23.175.453.296.66l.002.005h31.014l.001-.003a3.75 3.75 0 00.43-1.171A3.29 3.29 0 0032 24H0c0 .207.025.407.06.604zM0 20.444h32v1.779H0v-1.778zm0-3.555v1.778h32V16.89H0zm16-3.555h16v1.777H16v-1.777zm0-3.556h16v1.778H16V9.778zM.493 6.223l-.002.004.002-.004zm-.38.928c.023-.091.054-.177.083-.264-.031.087-.059.175-.082.264zM16 8h16c0-.208-.025-.409-.061-.605a3.222 3.222 0 00-.136-.512 3.748 3.748 0 00-.296-.661H16V8z"/><path d="M16 4.445H3.556A3.556 3.556 0 000 8.001v8.889h16V4.445z"/><path d="M1.78 6.868l.549.4-.21.644.548-.399.55.399-.21-.645.55-.399h-.68l-.21-.645-.209.645H1.78zm1.777 1.778l.55.399-.21.644.548-.398.55.398-.21-.644.549-.4h-.68L4.446 8l-.209.646h-.679zm3.556 0l.549.399-.21.644.549-.398.549.398-.21-.644.55-.4h-.68L8 8l-.208.646h-.68zm3.555 0l.55.399-.21.644.548-.398.55.398-.21-.644.55-.4h-.68L11.556 8l-.209.646h-.679zM3.558 12.2l.548.4-.21.644.55-.398.548.398-.21-.645.55-.399h-.68l-.209-.645-.209.645h-.679zm3.555 0l.549.4-.21.644.549-.398.549.398-.21-.645.55-.399h-.68L8 11.556l-.208.645h-.68zm3.555 0l.55.4-.21.644.548-.398.55.398-.21-.645.55-.399h-.68l-.21-.645-.209.645h-.679zM5.335 6.868l.55.4-.21.644.548-.399.55.399-.21-.645.549-.399h-.68l-.21-.645-.208.645h-.68zm3.555 0l.55.4-.21.644.548-.399.55.399-.21-.645.55-.399h-.68l-.21-.645-.208.645h-.68zm3.556 0l.55.4-.21.644.548-.399.55.399-.21-.645.549-.399h-.68l-.209-.645-.209.645h-.679zM1.779 10.424l.55.399-.21.644.548-.398.55.398-.21-.644.55-.4h-.68l-.21-.645-.209.646H1.78zm3.895 1.043l.549-.398.55.398-.21-.644.549-.4h-.68l-.21-.645-.208.646h-.68l.55.399-.21.644zm3.216-1.043l.55.399-.21.644.548-.398.55.398-.21-.644.55-.4h-.68l-.21-.645-.208.646h-.68zm3.556 0l.55.399-.21.644.548-.398.55.398-.21-.644.549-.4h-.68l-.209-.645-.209.646h-.679zM1.779 13.979l.55.4-.21.644.548-.399.55.399-.21-.645.55-.399h-.68l-.21-.645-.209.645H1.78zm3.895 1.044l.549-.399.55.399-.21-.645.549-.399h-.68l-.21-.645-.208.645h-.68l.55.4-.21.644zm3.216-1.044l.55.4-.21.644.548-.399.55.399-.21-.645.55-.399h-.68l-.21-.645-.208.645h-.68zm3.556 0l.55.4-.21.644.548-.399.55.399-.21-.645.549-.399h-.68l-.209-.645-.209.645h-.679z"/></g><defs><clipPath id="anclip0_1403_9108"><path d="M0 0h32v32H0z"/></clipPath></defs></symbol><symbol viewBox="0 0 20 20" id="info" xmlns="http://www.w3.org/2000/svg"><path d="M9 5h2v2H9V5zM9 9h2v6H9V9z"/><path fill-rule="evenodd" clip-rule="evenodd" d="M0 10C0 4.48 4.48 0 10 0s10 4.48 10 10-4.48 10-10 10S0 15.52 0 10zm2 0c0 4.41 3.59 8 8 8s8-3.59 8-8-3.59-8-8-8-8 3.59-8 8z"/></symbol><symbol viewBox="0 0 123 24" id="infoteh" xmlns="http://www.w3.org/2000/svg"><mask id="apa" style="mask-type:alpha" maskUnits="userSpaceOnUse" x="0" y="2" width="123" height="20"><path fill-rule="evenodd" clip-rule="evenodd" d="M0 2.472h122.298v18.896H0V2.472z"/></mask><g mask="url(#apa)"><path fill-rule="evenodd" clip-rule="evenodd" d="M122.297 21.116h-4.451l-4.274-6.952-4.275 6.952h-4.173l6.097-9.479-5.708-8.9h4.3l3.96 6.612 3.885-6.613h4.199l-5.771 9.115 6.211 9.265zm-19.206 0H92.506V2.736h10.585V5.93h-6.688v4.035h6.223v3.194h-6.223v4.74h6.688v3.217zm-18.405 0h-3.898V5.98h-4.99V2.736h13.879V5.98h-4.992v15.136zm-45.954-5.582h.176c1.35 0 2.407-.354 3.174-1.062.767-.708 1.15-1.679 1.15-2.91 0-1.14-.356-2.056-1.068-2.748-.712-.691-1.685-1.037-2.917-1.037h-.515v7.757zm-3.507-7.757h-.516c-1.232 0-2.204.344-2.916 1.031-.713.688-1.07 1.605-1.07 2.753 0 1.207.378 2.171 1.132 2.892.755.72 1.819 1.08 3.193 1.08h.177V7.778zm.004 13.59V18.54h-.277c-1.559 0-2.925-.275-4.099-.824a6.33 6.33 0 01-2.772-2.47c-.674-1.098-1.012-2.317-1.012-3.658 0-1.3.3-2.47.9-3.514.598-1.044 1.464-1.86 2.595-2.452 1.132-.59 2.464-.886 3.998-.886h.667V2.472h3.507v2.263h.666c1.526 0 2.854.296 3.986.886 1.131.591 1.998 1.408 2.602 2.452.603 1.043.905 2.215.905 3.514 0 1.34-.337 2.56-1.012 3.658a6.333 6.333 0 01-2.772 2.47c-1.173.55-2.54.824-4.098.824h-.277v2.829h-3.507zm-11.646-.25h-3.885v-7.933h-7.28v7.932H8.522V2.736h3.898V9.94h7.279V2.736h3.885v18.38zM0 21.116h3.897V2.736H0v18.38z"/></g><path fill-rule="evenodd" clip-rule="evenodd" d="M67.032 11.768a13.552 13.552 0 00-.103-.147l-.03-.04-.002.014-.007-.01v.005a7.085 7.085 0 01-.028.15l-.002.015c-.01.053-.02.11-.032.166l-.007.035a57.493 57.493 0 01-.043.217l-.04.195-.005.021-.044.206-.005.02a24.584 24.584 0 01-.058.257l-.055.226a19.787 19.787 0 01-.07.277l-.008.034c-.042.163-.087.324-.132.483l-.017.062-.014.046c-.044.154-.09.306-.137.455l-.008.027-.02.056-.065.204a19.735 19.735 0 00.217-.093l.088-.038.145-.065.083-.038.146-.068.07-.033a6.934 6.934 0 00.499-.257l.092-.054a6.076 6.076 0 00.48-.307l.097-.07.045-.034-.025-.069-.051-.126a8.369 8.369 0 00-.258-.563l-.053-.106a8.545 8.545 0 00-.305-.536l-.043-.068a13.23 13.23 0 00-.093-.148l-.053-.08a11.7 11.7 0 00-.149-.221zm.736 2.976l-.078.044a7.326 7.326 0 01-.56.287l-.133.063-.074.034-.1.046-.027.012-.082.036-.127.056-.088.037-.128.054-.092.039a12.85 12.85 0 01-.132.054l-.094.038-.138.055-.095.037a3.45 3.45 0 01-.055.021l-.01.027a15.993 15.993 0 01-.363.836l-.026.055c-.06.126-.122.25-.185.37l-.006.012-.013.024a8.969 8.969 0 01-.645 1.063l-.029.042c-.06.085-.122.17-.185.252 1.275.387 2.642.391 3.994.01a7.456 7.456 0 000-3.939 7.257 7.257 0 01-.223.15l-.006.003a7.918 7.918 0 01-.3.182zM57.756 21.58a8.438 8.438 0 01-2.96-.54 7.686 7.686 0 008.913 2.41 8.62 8.62 0 01-4.25-2.048 8.244 8.244 0 01-1.703.178zm7.14 1.267a7.902 7.902 0 01-4.582-1.674 8.184 8.184 0 003.481-2.236l.005.001.004-.004a7.603 7.603 0 002.493.416c.575 0 1.154-.064 1.726-.189a7.723 7.723 0 01-3.126 3.686zM64.493 16.7l.082-.157.043-.085a8.41 8.41 0 00.117-.24c.025-.052.049-.103.072-.155l.024-.052-.188.072.009-.016-.01.004-.152.053-.016.005-.173.06-.04.013-.182.06-.039.013a19.976 19.976 0 01-.416.13l-.04.012a6.514 6.514 0 01-.215.064l-.041.012-.078.023a24.418 24.418 0 01-.692.186l-.107.027c-.157.038-.312.075-.466.11-.028.005-.054.01-.082.017l-.21.045.044.033.147.11.07.052a18.36 18.36 0 00.341.243l.06.042.19.128c.093.062.189.12.285.177l.092.053a6.993 6.993 0 00.508.262l.106.049.052.021.048-.058a7.718 7.718 0 00.303-.405c.047-.067.094-.137.14-.207.021-.033.044-.065.065-.099a8.372 8.372 0 00.312-.532l.037-.07zm-1.967 1.649l-.078-.045a7.828 7.828 0 01-.617-.403l-.03-.02a16.39 16.39 0 01-.31-.224l-.045-.034a19.108 19.108 0 01-.314-.238l-.053-.04a24.185 24.185 0 01-.346-.274l-.211.028c-.073.01-.147.02-.219.028-.102.012-.201.022-.3.031l-.198.02c-.11.009-.217.015-.324.02a10.743 10.743 0 01-.62.02h-.017a8.806 8.806 0 01-.716-.029c-.065-.005-.13-.01-.195-.017a8.466 8.466 0 01-.253-.03c.303 1.287.996 2.497 1.988 3.466a7.448 7.448 0 003.41-1.968 7.374 7.374 0 01-.552-.291zm-3.698 2.43c-.983-1.08-1.65-2.391-1.913-3.77l-.005-.001-.001-.005a8.184 8.184 0 01-3.678-1.895 7.898 7.898 0 00.844 4.807 7.722 7.722 0 004.753.863zm-5.87-1.59a7.613 7.613 0 01-2.675-4.051 7.611 7.611 0 01.306-4.88 8.37 8.37 0 002.017 4.223 8.623 8.623 0 00.352 4.708zM56.283 9.262a7.425 7.425 0 01.577-.302l.065-.031.128-.061.08-.036.12-.055.09-.04a13.733 13.733 0 01.333-.143l.1-.041.122-.05.106-.043.056-.022.068-.026.109-.043.048-.019.01-.027c.054-.133.108-.265.164-.394l.027-.063c.056-.128.114-.255.172-.379l.027-.055c.06-.126.121-.25.184-.37l.02-.036a8.81 8.81 0 01.4-.697l.055-.087c.061-.094.124-.186.188-.278l.03-.042c.06-.086.122-.17.185-.252a6.82 6.82 0 00-1.989-.294 7.39 7.39 0 00-2.006.284 7.461 7.461 0 000 3.937c.075-.052.15-.102.225-.15l.01-.006c.097-.062.196-.122.296-.18zm.94 2.826c0-.007.002-.015.004-.022.01-.06.023-.12.035-.182l.007-.031.04-.197.004-.019a22.655 22.655 0 01.097-.438l.01-.04a29.377 29.377 0 01.061-.257c.008-.028.014-.057.021-.085l.04-.154c.043-.169.088-.334.134-.498l.03-.109.002-.003c.046-.16.093-.32.143-.476l.006-.022.014-.042.08-.248-.063.026-.153.066a13.312 13.312 0 00-.466.21l-.066.031-.205.1c-.1.05-.197.103-.294.157l-.091.054a6.475 6.475 0 00-.197.119l-.102.066c-.061.04-.121.081-.182.123l-.096.07c-.016.01-.031.023-.047.035.01.023.017.046.026.07a7.916 7.916 0 00.143.34 8.02 8.02 0 00.166.349l.052.104a8.507 8.507 0 00.306.537l.044.072.091.144.055.084a10.266 10.266 0 00.15.221c.03.046.064.092.096.138l.04.056a21.78 21.78 0 01.064-.35zM69.257 2.97A7.612 7.612 0 0065.185.264a7.613 7.613 0 00-4.848.293 8.624 8.624 0 014.256 2.05 8.357 8.357 0 014.665.363zm-10.11-1.81a7.904 7.904 0 014.586 1.674 8.185 8.185 0 00-3.48 2.236l-.005-.002-.004.005a7.682 7.682 0 00-4.22-.23A7.734 7.734 0 0159.15 1.16zM71.448 9.528a8.356 8.356 0 012.018 4.218 7.686 7.686 0 00-2.369-8.925c.55 1.499.676 3.127.351 4.707zM59.411 7.924l-.007.013.183-.064.07-.024.15-.05.09-.03.148-.048.1-.032.155-.049.104-.032.177-.053.093-.027a22.08 22.08 0 01.82-.223l.06-.016.042-.01h.001c.157-.039.313-.076.469-.11l.023-.006h.002l.052-.011.214-.046-.052-.04-.136-.1a19.206 19.206 0 00-.206-.151l-.07-.051a12.06 12.06 0 00-.14-.097l-.057-.04a7.043 7.043 0 00-.475-.305c-.03-.019-.062-.036-.093-.054a6.98 6.98 0 00-.613-.31l-.053-.022c-.015.02-.031.038-.047.057a7.226 7.226 0 00-.224.295 8.334 8.334 0 00-.22.318c-.02.033-.043.065-.064.098a8.447 8.447 0 00-.312.533l-.037.07-.082.157-.043.085a9.932 9.932 0 00-.117.24c-.025.051-.049.104-.073.156l-.023.052.191-.073zm5.81-4.695c.983 1.08 1.65 2.39 1.914 3.769h.004l.001.005A8.183 8.183 0 0170.818 8.9a7.893 7.893 0 00-.842-4.807 7.729 7.729 0 00-4.755-.864zm-4.007 2.26l-.003-.002a7.403 7.403 0 00-.242-.119 7.448 7.448 0 013.41-1.969c.992.97 1.685 2.178 1.988 3.464-.062-.008-.125-.014-.188-.021a8.443 8.443 0 00-.955-.054h-.039c-.151 0-.306.004-.464.011-.05.002-.103.006-.155.01a12.63 12.63 0 00-.327.02l-.194.02-.303.031-.215.029c-.071.009-.141.017-.213.028l-.022-.018a22.415 22.415 0 00-.69-.534l-.044-.033c-.105-.078-.21-.153-.311-.224l-.029-.02a14.175 14.175 0 00-.314-.214 7.26 7.26 0 00-.304-.19l-.077-.045a7.657 7.657 0 00-.309-.17zM57.953 16.444c.072.007.143.015.214.02l.093.007c.2.014.4.022.603.023.133 0 .27-.004.408-.01l.073-.002c.134-.007.27-.016.41-.027l.08-.007.133-.014a16.214 16.214 0 01-.309-.265 49.766 49.766 0 00-.183-.161l-.074-.066a16.96 16.96 0 01-.202-.183l-.127-.116-.08-.076a26.387 26.387 0 01-.141-.133l-.073-.07-.219-.21a21.052 21.052 0 01-.349-.354l-.072-.076c-.11-.115-.22-.23-.325-.346l-.054-.06-.14-.155-.009.068a14.382 14.382 0 00-.047.419l-.009.09a13.511 13.511 0 00-.036.464c-.007.112-.01.224-.011.336v.108a6.7 6.7 0 00.038.686l.008.055.067.012a6.98 6.98 0 00.333.043zm-1.17-.923a7.717 7.717 0 01.026-.565l.006-.07.012-.143.008-.087.013-.132.01-.096.015-.13.012-.102.016-.129.014-.108.018-.13.016-.111.02-.133.017-.115.008-.05-.018-.024c-.09-.114-.177-.227-.261-.34l-.04-.055a14.194 14.194 0 01-.506-.735l-.02-.033a8.524 8.524 0 01-.45-.788 8.62 8.62 0 01-.15-.307l-.02-.042a9.146 9.146 0 01-.125-.284c-.963.906-1.664 2.11-2.006 3.454a7.45 7.45 0 003.41 1.967 7.477 7.477 0 01-.025-.622l-.001-.045.001-.045zm-1.646-5.442l-.002-.005.004-.004a8.197 8.197 0 01-.196-4.132A7.908 7.908 0 0051.2 9.071a7.733 7.733 0 001.629 4.55c.443-1.39 1.244-2.624 2.307-3.542zM51.272 7.74a7.685 7.685 0 016.546-6.515 8.367 8.367 0 00-2.645 3.856 8.633 8.633 0 00-3.9 2.659zM68.915 13.928l.001.005-.004.003a8.192 8.192 0 01.197 4.134 7.908 7.908 0 003.742-3.133 7.725 7.725 0 00-1.63-4.55c-.443 1.39-1.244 2.623-2.306 3.54zm-2.497-6.325l-.11-.015a7.568 7.568 0 00-.265-.031 9.09 9.09 0 00-.384-.03c-.033-.002-.065-.005-.098-.006a8.823 8.823 0 00-.782 0l-.073.004c-.134.006-.27.015-.409.027l-.082.007-.122.013.134.109h-.014l.009.008.17.146.052.046.131.115.072.065.123.11.08.073a28.886 28.886 0 01.209.193l.142.135.057.053.016.015.216.21.003.004.006.005c.117.116.232.232.345.35l.072.074c.11.116.22.231.325.347l.054.06.138.153.009-.068.02-.165.01-.1.016-.151.01-.097.013-.154.007-.082.016-.225c.006-.112.01-.224.01-.336v-.107a6.242 6.242 0 00-.027-.57l-.01-.116-.008-.055-.08-.014zm.853.793l.001.045-.001.045c-.002.12-.005.24-.012.36v.005l-.014.2-.005.062-.013.15-.007.078a13.836 13.836 0 01-.039.367l-.011.097c-.006.044-.01.09-.017.134l-.014.105-.017.134-.016.11a19.256 19.256 0 01-.037.25l-.008.051.034.043.074.095.085.11.07.093.082.112.066.09a10.06 10.06 0 01.144.204l.079.115.058.086.078.12.052.08.083.133.042.066a8.7 8.7 0 01.499.931l.02.044c.043.094.085.19.124.285.973-.91 1.66-2.092 2.005-3.454a7.45 7.45 0 00-3.41-1.969 7.2 7.2 0 01.018.264v.002c.006.118.007.237.007.357zm5.507 7.87a7.686 7.686 0 01-6.547 6.516 8.353 8.353 0 002.646-3.857 8.63 8.63 0 003.901-2.658z"/></symbol><symbol viewBox="0 0 24 24" id="linkedin" xmlns="http://www.w3.org/2000/svg"><path d="M3.223 0H3.22C2.364 0 1.557.338.948.952A3.245 3.245 0 000 3.252c0 .888.344 1.719.967 2.34.604.602 1.429.94 2.228.92l.07.001a3.13 3.13 0 002.185-.917 3.267 3.267 0 00.969-2.331A3.263 3.263 0 005.48.96 3.147 3.147 0 003.223 0zM4.8 7.327H1.566C.924 7.327.4 7.875.4 8.549v14.23c0 .66.55 1.218 1.2 1.218h3.2c.65 0 1.2-.547 1.2-1.192V8.547c0-.662-.55-1.22-1.2-1.22zM18.452 6.92h-.843c-1.553 0-3.043.673-4.009 1.784V8.14c0-.403-.404-.813-.8-.813h-4c-.37 0-.8.333-.8.763v15.174c0 .431.422.732.8.732l4.4.002c.378 0 .8-.301.8-.733v-8.767c0-1.322.964-2.37 2.196-2.383a2.247 2.247 0 011.66.687c.366.372.544.916.544 1.662v8.722c0 .404.404.814.8.814h4c.396 0 .8-.41.8-.814V12.691c0-3.236-2.437-5.771-5.548-5.771z"/></symbol><symbol viewBox="0 0 18 23" id="marker" xmlns="http://www.w3.org/2000/svg"><path fill-rule="evenodd" clip-rule="evenodd" d="M9 22.328l.658-.575C15.188 16.923 18 12.707 18 9c0-5.25-4.097-9-9-9S0 3.75 0 9c0 3.707 2.811 7.924 8.342 12.753l.658.575zm0-2.665C4.307 15.433 2 11.85 2 9c0-4.103 3.164-7 7-7s7 2.897 7 7c0 2.85-2.307 6.434-7 10.663zM9 4a5 5 0 110 10A5 5 0 019 4zM6 9a3 3 0 116 0 3 3 0 01-6 0z"/></symbol><symbol viewBox="0 0 50 50" id="mastercard-svgrepo-com" xmlns="http://www.w3.org/2000/svg"><path d="M46.667 41.667H3.333A3.334 3.334 0 010 38.333V11.667a3.334 3.334 0 013.333-3.334h43.334A3.334 3.334 0 0150 11.667v26.666a3.334 3.334 0 01-3.333 3.334zM39.56 35.72h-.02c-.4 0-.76.17-1.01.443l-.002.001a1.625 1.625 0 00.002 2.193l-.002-.001c.253.273.613.444 1.013.444h.02-.002a1.068 1.068 0 00.932-.43l.001-.003v.37h.63v-4.124h-.63v1.542a1.1 1.1 0 00-.876-.437c-.02 0-.04 0-.059.002h.003zm-5.903 0h-.032a1.41 1.41 0 00-1.02.435 1.653 1.653 0 000 2.215v-.002c.258.268.62.435 1.022.435h.033-.001c.02.002.04.002.062.002.349 0 .657-.171.846-.434l.003-.003v.37h.653v-2.93h-.652v.347a1.079 1.079 0 00-.865-.437c-.017 0-.033 0-.049.002h.003-.003zm-2.844 0c-.018-.002-.038-.002-.058-.002a1.542 1.542 0 100 3.084c.02 0 .041 0 .06-.002h-.002l.057.002c.375 0 .718-.13.989-.35l-.003.002-.304-.52c-.193.152-.438.25-.703.26h-.003c-.016.002-.037.002-.057.002a.902.902 0 01-.637-.262 1.03 1.03 0 01.001-1.346l-.001.001a.848.848 0 01.612-.26h.03-.002c.288 0 .551.098.763.262l-.003-.003.304-.521a1.618 1.618 0 00-1.008-.349h-.035.001l-.001.002zm-5.667 0h-.034c-.398 0-.755.166-1.007.435a1.55 1.55 0 00-.413 1.113v-.002l-.001.063c0 .41.162.782.425 1.055.264.262.627.423 1.029.423l.047-.001h-.003l.057.001c.435 0 .832-.157 1.14-.416l-.002.002-.304-.476c-.225.199-.521.322-.845.325h-.001a.825.825 0 01-.889-.712v-.005h2.192v-.26-.072c0-.401-.148-.768-.394-1.047l.002.002a1.3 1.3 0 00-.967-.43h-.03.001l-.003.002zm-4.273.087v.586h.607v1.325c0 .72.343 1.085 1.019 1.085h.024c.28 0 .54-.083.758-.225l-.006.003-.175-.543a1.185 1.185 0 01-.563.153h-.002c-.275 0-.414-.16-.414-.477v-1.32h1.042v-.585h-1.042v-.89h-.651v.89l-.597-.002zm-2.732 2.125l-.282.5c.343.232.765.37 1.22.37h.04-.002c.028.001.06.003.092.003.332 0 .641-.1.901-.269l-.007.005a.819.819 0 00.358-.677v-.02.002c0-.489-.343-.778-1.019-.868l-.303-.044c-.333-.057-.5-.159-.5-.303 0-.217.182-.325.543-.325h.007c.34 0 .66.089.936.244l-.01-.005.262-.521a2.177 2.177 0 00-1.118-.306c-.027 0-.054 0-.08.002h.003c-.022-.002-.048-.002-.075-.002-.305 0-.589.099-.818.266l.004-.003a.843.843 0 00-.325.666v.03-.002c0 .475.343.76 1.02.846l.282.045c.346.058.52.16.52.304 0 .244-.222.37-.673.37h-.012c-.362 0-.696-.115-.97-.31l.006.005v-.003zm-2.475-2.214h-.035c-.396 0-.754.167-1.006.435a1.688 1.688 0 00.001 2.217v-.002c.252.268.61.435 1.006.435h.036a1.1 1.1 0 00.933-.432v-.003.37h.63v-2.93h-.63v.347a1.175 1.175 0 00-.913-.435h-.022.001l-.001-.002zm20.4.088v2.93h.629V37.09c0-.503.21-.758.629-.758h.014c.137 0 .268.031.383.088l-.005-.002.194-.609a1.002 1.002 0 00-.458-.086h.003-.024a.839.839 0 00-.733.43l-.003.005v-.347l-.63-.003zm-8.875 0v2.93h.651V37.09c0-.503.211-.758.63-.758h.013c.138 0 .268.031.383.088l-.005-.002.196-.609a1.083 1.083 0 00-.43-.087h-.027.001-.025a.836.836 0 00-.732.43l-.003.005v-.348l-.652-.001zm-14.845.52c.432 0 .652.263.652.779v1.627h.651V36.89l.001-.046c0-.306-.12-.582-.316-.786a1.234 1.234 0 00-.846-.334h-.013a1.12 1.12 0 00-1.017.517l-.002.004a1.048 1.048 0 00-.98-.52h.004-.013c-.343 0-.647.17-.832.432l-.003.002v-.347h-.648v2.93h.651v-1.63c0-.518.242-.778.717-.778.432 0 .651.263.651.778v1.628h.63V37.11c0-.52.241-.778.715-.778l-.002-.005zm19.467-25.216h-.046c-2.257 0-4.353.689-6.09 1.87l.037-.024a11.734 11.734 0 013.83 5.679l.023.083a11.58 11.58 0 01.515 3.459c0 1.22-.184 2.397-.526 3.505l.022-.083a11.515 11.515 0 01-3.841 5.72l-.023.017a10.878 10.878 0 006.09 1.845c1.556 0 3.035-.324 4.376-.907l-.071.028c2.664-1.13 4.741-3.207 5.843-5.799l.026-.07c.556-1.265.88-2.738.88-4.287 0-1.548-.324-3.022-.908-4.355l.028.069c-1.129-2.665-3.212-4.743-5.81-5.84l-.07-.027a10.644 10.644 0 00-4.271-.879h-.015v-.004zm-13.628 0h-.015a10.79 10.79 0 00-4.34.906l.069-.028c-2.67 1.123-4.753 3.203-5.856 5.798l-.026.071a10.714 10.714 0 00-.88 4.286c0 1.549.325 3.023.908 4.356l-.028-.07c1.13 2.664 3.207 4.742 5.799 5.843l.07.027c1.27.556 2.75.88 4.305.88 2.27 0 4.379-.69 6.129-1.87l-.04.025a11.61 11.61 0 01-3.84-5.68l-.022-.082a11.63 11.63 0 01-.5-3.415c0-3.701 1.69-7.008 4.343-9.189l.021-.016a10.751 10.751 0 00-6.051-1.845h-.05.003l.001.003zM25 13.476a10.826 10.826 0 00-3.712 5.336l-.021.077c-.317.979-.5 2.107-.5 3.276 0 1.159.179 2.274.51 3.322l-.02-.077a10.728 10.728 0 003.718 5.387l.025.018a10.714 10.714 0 003.724-5.329l.02-.075c.312-.97.49-2.088.49-3.246 0-1.17-.183-2.297-.52-3.355l.02.077a10.85 10.85 0 00-3.708-5.394l-.025-.018-.001.001zm14.647 24.718h-.023a.833.833 0 01-.616-.27 1 1 0 01.001-1.326.887.887 0 011.28 0 1.015 1.015 0 01-.002 1.335l.002-.001a.851.851 0 01-.617.262h-.025.002-.002zm-5.923 0h-.03a.819.819 0 01-.6-.26 1.067 1.067 0 01.001-1.347v.002a.815.815 0 01.598-.261h.032-.001.025c.243 0 .462.104.613.27.156.169.25.394.25.64v.029-.002l.002.038c0 .244-.09.466-.24.637l.001-.001a.841.841 0 01-.606.255l-.047-.001h.003l-.001.001zm-17.97 0l-.04.002c-.24 0-.457-.1-.61-.261a1.067 1.067 0 01.001-1.347.843.843 0 01.653-.259h-.001.032c.237 0 .451.104.597.27l.002.002a1.052 1.052 0 01-.002 1.335l.002-.001a.818.818 0 01-.602.26h-.032zM25.89 37H24.37a.763.763 0 011.52-.003V37h-.002z"/></symbol><symbol viewBox="0 0 12 14" id="pdf" xmlns="http://www.w3.org/2000/svg"><path d="M8.057.333H2.702c-.783 0-1.42.638-1.42 1.42V7h-.138a.572.572 0 00-.572.572v3.468c0 .316.256.572.572.572h.139v.636c0 .783.636 1.419 1.419 1.419h7.307a1.42 1.42 0 001.418-1.42V3.693L8.058.333zM2.072 8.198c.168-.028.404-.05.735-.05.336 0 .575.064.736.193a.703.703 0 01.256.556.769.769 0 01-.22.571c-.186.175-.461.254-.782.254-.072 0-.136-.004-.186-.01v.86h-.539V8.197zm7.937 4.6H2.702a.55.55 0 01-.55-.55v-.636h6.812a.572.572 0 00.572-.572V7.572A.572.572 0 008.964 7H2.152V1.753a.55.55 0 01.55-.55l5.03-.005v1.86c0 .543.44.984.984.984l1.821-.006.02 8.212a.55.55 0 01-.548.55zM4.147 10.56V8.198c.2-.032.46-.05.735-.05.457 0 .753.082.985.257.25.186.407.482.407.906 0 .46-.168.778-.4.975-.253.21-.639.31-1.11.31-.282 0-.482-.018-.617-.036zM8.04 9.162v.442h-.863v.967h-.546V8.166h1.47v.446h-.924v.55h.863z"/></symbol><symbol viewBox="0 0 34 34" id="shoping" xmlns="http://www.w3.org/2000/svg"><path fill-rule="evenodd" clip-rule="evenodd" d="M8.723 7C9.213 3.36 12.852.333 17 .333S24.787 3.36 25.277 7h4.801a3.333 3.333 0 013.3 3.805l-2.857 20a3.333 3.333 0 01-3.3 2.862H6.78a3.333 3.333 0 01-3.3-2.862l-2.857-20A3.333 3.333 0 013.922 7h4.8zM21.88 7c-.507-1.77-2.55-3.333-4.88-3.333S12.627 5.23 12.12 7h9.76zM3.922 10.334h4.745v3.333H12v-3.333h10v3.333h3.333v-3.333h4.745l-2.857 20H6.78l-2.857-20z"/></symbol><symbol viewBox="0 0 80 80" id="sphere" xmlns="http://www.w3.org/2000/svg"><path fill-rule="evenodd" clip-rule="evenodd" d="M37.88.013c-3.168.237-5.216.547-7.626 1.152-2.106.529-4.635 1.392-6.296 2.149a5.975 5.975 0 01-.537.227c-.021 0-.427.193-.901.429-4.317 2.145-7.51 4.436-10.855 7.787-4.443 4.45-7.532 9.404-9.59 15.378C1.106 29.944.49 32.848.1 36.429c-.132 1.21-.134 5.773-.003 7.07.786 7.795 3.375 14.548 7.873 20.535 1.235 1.644 2.152 2.686 3.847 4.371 3.58 3.559 7.393 6.18 11.943 8.212 3.748 1.674 7.8 2.745 12.253 3.239 1.746.193 6.215.192 7.942-.003 5.305-.597 9.43-1.799 13.984-4.073 2.489-1.243 4.381-2.438 6.61-4.176 1.645-1.284 2.501-2.05 4.03-3.61 2.21-2.25 3.943-4.459 5.508-7.018a98.02 98.02 0 01.687-1.112c.043-.065.481-.923.973-1.906 1.443-2.884 2.322-5.238 3.069-8.222.734-2.934 1.083-5.527 1.169-8.7.266-9.778-2.994-19.153-9.29-26.718-.95-1.143-3.48-3.703-4.66-4.715-3.795-3.26-8.52-5.955-13.184-7.52a40.169 40.169 0 00-6.712-1.64C44.075.132 42.902.04 40.58.012c-1.266-.015-2.481-.015-2.7.002zm3.41 3.017c2.202.385 4.378 1.72 6.334 3.886 2.894 3.204 5.423 8.316 7.055 14.26l.289 1.053c.02.077.016.14-.01.14-.026 0-.735-.125-1.574-.276-4.32-.78-8.248-1.108-13.36-1.112-4.389-.004-7.238.183-11 .72-.85.122-3.314.533-3.806.636-.24.05-.265.04-.217-.085.03-.079.094-.308.142-.51.101-.42.737-2.593.898-3.068 1.882-5.546 4.138-9.595 6.88-12.353 1.427-1.434 2.983-2.456 4.522-2.97 1.339-.448 2.545-.549 3.847-.32zm-7.897.257c-.11.074-.566.452-1.016.839-3.197 2.752-6.011 7.479-8.093 13.595-.333.979-.83 2.683-1.182 4.044-.247.96-.342 1.155-.56 1.158-.168.003-3.328.887-4.32 1.21-5.656 1.836-10.42 4.486-13.307 7.402-.622.629-1.488 1.618-1.682 1.922-.162.253-.048-.396.38-2.16 1.624-6.697 4.818-12.466 9.643-17.42a36.96 36.96 0 017.626-6.02c3.53-2.115 7.406-3.626 11.557-4.507 1.1-.234 1.215-.242.954-.063zm14.653.186c2.987.67 5.465 1.53 8.18 2.845 4.248 2.055 7.929 4.78 11.216 8.306 4.127 4.426 7.27 10.162 8.762 15.996.276 1.077.639 2.811.598 2.852-.016.016-.235-.233-.488-.553-.681-.862-2.095-2.234-3.13-3.037-2.263-1.754-4.798-3.173-8.116-4.54-1.862-.768-4.44-1.607-6.692-2.179l-1.196-.304-.1-.305c-.054-.167-.262-.93-.462-1.695-1.293-4.943-3.542-10.012-5.858-13.202-1.114-1.535-2.59-3.126-3.74-4.03-.728-.574-.803-.563 1.026-.154zm-2.383 19.643c2.127.16 3.874.358 6.036.683.92.138 1.488.238 3.177.559.262.05.517.123.566.164.05.04.168.493.265 1.005l.287 1.528c.3 1.592.668 4.63.882 7.27.17 2.1.196 8.828.041 10.843-.277 3.617-.676 6.666-1.239 9.45l-.184.91-1.103.218c-2.464.486-5.659.91-8.688 1.152-2.144.171-8.839.197-10.921.041a103.278 103.278 0 01-5.48-.575c-1.761-.238-4.672-.782-4.782-.892-.168-.17-.74-3.463-1.05-6.054-.438-3.663-.52-5.2-.514-9.612.005-4.064.08-5.47.472-8.846.314-2.707.917-6.235 1.098-6.419.11-.111 2.686-.596 4.577-.86 1.83-.256 4.148-.49 5.917-.597.786-.047 1.626-.098 1.866-.114 1.075-.068 7.315.036 8.777.146zM22.35 25.089a3.43 3.43 0 01-.078.428c-.425 1.843-.924 5.795-1.206 9.562-.128 1.713-.13 8.04-.001 9.81.27 3.74.733 7.423 1.211 9.638.05.233.074.44.052.462-.02.02-.212-.015-.424-.08-.212-.066-.976-.286-1.697-.49a45.642 45.642 0 01-7.457-2.891c-5.403-2.708-8.838-6.19-9.657-9.79-.5-2.197.01-4.582 1.424-6.66 2.73-4.008 8.351-7.36 16.127-9.618 1.803-.523 1.708-.503 1.706-.37zm36.736.304c2.676.733 5.834 1.93 8.101 3.073 5.087 2.563 8.35 5.68 9.484 9.056.607 1.81.5 3.878-.296 5.726-1.324 3.071-4.54 5.976-9.188 8.298a43.79 43.79 0 01-5.361 2.226c-1.3.443-4.137 1.266-4.188 1.215-.02-.02.004-.227.054-.46.122-.563.353-1.925.55-3.242.83-5.54 1.018-12.085.52-17.994-.177-2.102-.548-4.968-.866-6.693a71.597 71.597 0 01-.28-1.567c0-.029.063-.032.14-.008.076.024.675.19 1.33.37zm-8.358 7.46c-.771.182-1.292.936-1.292 1.868 0 1.15.677 1.86 1.84 1.931 1.247.076 1.953-.543 2.034-1.783.028-.421.001-.662-.102-.933-.171-.447-.706-.96-1.123-1.075-.345-.096-.973-.1-1.357-.009zm1.232.76c.296.208.414.538.414 1.156 0 .49-.029.61-.2.836a.988.988 0 01-1.604-.041c-.145-.217-.181-.38-.181-.819 0-.894.285-1.255.993-1.255.235 0 .474.051.578.124zm-23.135 2.71c-1.08.136-2.3.618-2.431.963-.215.566.501 1.475 1.06 1.345.099-.023.43-.134.735-.246 1.07-.394 2.168-.222 2.455.383.223.47.139 1.124-.193 1.491-.226.25-.743.4-1.583.462-.765.056-.846.078-1.013.272-.137.16-.182.31-.182.61 0 .746.17.864 1.362.944 1.452.097 1.932.474 1.876 1.472-.033.595-.235.905-.756 1.162-.546.268-1.671.3-2.57.073-.843-.213-1.034-.209-1.29.029-.182.169-.21.258-.21.67 0 .381.036.518.178.68.42.477 2.762.756 4.113.489 1.248-.247 2.153-.839 2.58-1.688.22-.434.235-.526.236-1.384.001-.886-.008-.934-.24-1.311-.277-.452-.804-.836-1.406-1.026a37.42 37.42 0 01-.537-.174c-.075-.025.038-.11.3-.228.872-.39 1.394-1.016 1.605-1.925.18-.776-.094-1.705-.654-2.21-.728-.658-2.154-1.012-3.435-.852zm16.512.066c-1.984.431-2.82 2.225-2.713 5.822.045 1.504.178 2.217.577 3.088.588 1.284 1.6 1.932 3.018 1.932 1.997 0 3.126-1.174 3.497-3.64.219-1.448.111-3.502-.245-4.7-.589-1.978-2.164-2.931-4.134-2.502zm-7.22.08c-2.14.478-3.195 1.677-3.66 4.16-.176.938-.173 2.721.007 3.506.426 1.867 1.622 2.97 3.336 3.076 2.11.132 3.523-1.002 3.786-3.034.227-1.758-.388-3.177-1.622-3.744-.442-.203-.582-.228-1.29-.226-.96.002-1.341.154-1.91.762-.204.218-.387.38-.407.359-.074-.074.196-1.377.358-1.734.092-.201.348-.528.569-.727.555-.5 1.184-.7 2.316-.738.477-.017.933-.065 1.012-.107.396-.212.428-1.166.05-1.49-.194-.168-.282-.182-1.139-.176-.51.004-1.143.054-1.405.113zm8.655 1.858c.299.17.477.476.654 1.123.181.666.206 3.73.035 4.497-.217.978-.71 1.505-1.34 1.436-.979-.107-1.313-1.02-1.312-3.592 0-2.474.3-3.416 1.147-3.614.303-.07.486-.037.816.15zm-7.901 3.808c.11.08.288.305.397.498.163.29.196.453.192.957-.005.844-.177 1.263-.646 1.573-.976.647-2.082-.046-2.285-1.43-.03-.206-.014-.51.037-.7.112-.415.606-.916 1.017-1.032.402-.112 1.045-.046 1.288.134zM4.449 48.003c1.773 1.95 4.583 3.919 7.855 5.506 2.76 1.339 6.196 2.574 9.293 3.342 1.162.288 1.31.348 1.31.534 0 .269.784 3.076 1.26 4.512 1.311 3.96 2.672 6.877 4.499 9.645 1.257 1.906 2.838 3.693 4.274 4.83.342.271.599.492.571.492-.17 0-2.174-.45-3.177-.713-5.458-1.433-10.78-4.293-15.09-8.111C9.231 62.717 5.06 55.604 3.413 47.869c-.347-1.632-.353-1.535.066-.998.203.26.639.77.969 1.132zm72.349-1.227c-1.32 6.493-3.811 11.89-7.716 16.708a37.684 37.684 0 01-14.48 10.96c-2.168.93-5.048 1.823-7.309 2.264-.414.08-.764.136-.777.123-.013-.013.236-.232.554-.487.788-.629 2.156-2.02 2.866-2.914 2.238-2.815 4.127-6.433 5.611-10.746.422-1.223 1.265-4.096 1.438-4.899.054-.247.123-.491.155-.542.03-.05.553-.217 1.16-.37 6.047-1.52 11.486-4.005 15.06-6.88 1.11-.894 2.348-2.125 3.155-3.137.148-.186.284-.338.302-.338.018 0 .01.116-.02.258zm-50.71 11.057c7.39 1.422 16.655 1.616 24.618.514 1.1-.153 3.733-.589 4.11-.68.099-.025.18-.027.18-.005 0 .021-.18.678-.401 1.458-2.755 9.754-7.486 16.394-12.625 17.719-4.065 1.048-8.123-1.157-11.603-6.305-.39-.576-.708-1.067-.708-1.09 0-.025-.137-.268-.305-.542-.982-1.606-2.402-4.844-3.282-7.489-.22-.659-1.1-3.649-1.1-3.735 0-.058.046-.051 1.117.155z"/></symbol><symbol viewBox="0 0 24 24" id="telegram" xmlns="http://www.w3.org/2000/svg"><path fill-rule="evenodd" clip-rule="evenodd" d="M10.963.068C-2.9 1.36-3.94 20.926 9.698 23.827l.815.173 1.499-.003 1.498-.004.787-.168c4.913-1.05 8.484-4.587 9.528-9.438l.175-.812v-3.127l-.174-.77C22.61 4.277 18.362.55 12.873.061c-.947-.084-.944-.084-1.91.006zm6.746 7.398c.26.257.256.29-.418 3.44-.332 1.55-.634 2.969-.671 3.153-.037.184-.237 1.121-.444 2.082l-.377 1.746-.182.18-.182.181-.265-.05c-.179-.032-.776-.424-1.82-1.192l-1.556-1.144-.826.777c-.724.68-1.098.939-1.204.833-.017-.017.018-.599.077-1.294.06-.694.109-1.353.11-1.463v-.2l2.529-2.3a921.7 921.7 0 012.847-2.582c.342-.303.383-.394.207-.461-.124-.048-.21.004-4.394 2.628l-2.895 1.815-.193-.073c-.106-.04-.826-.262-1.6-.493-2.57-.767-2.932-.504 4.745-3.455 6.383-2.454 6.234-2.405 6.512-2.128z"/></symbol><symbol viewBox="0 0 22 22" id="time" xmlns="http://www.w3.org/2000/svg"><path fill-rule="evenodd" clip-rule="evenodd" d="M11 22C4.925 22 0 17.075 0 11S4.925 0 11 0s11 4.925 11 11-4.925 11-11 11zm0-2a9 9 0 100-18 9 9 0 000 18zm5-10h-4V5h-2v7h6v-2z"/></symbol><symbol viewBox="0 0 14 20" id="tram" xmlns="http://www.w3.org/2000/svg"><path d="M14 14.94V6.5c0-2.79-2.61-3.4-6.01-3.49l.76-1.51H12V0H2v1.5h4.75l-.76 1.52C2.86 3.11 0 3.73 0 6.5v8.44c0 1.45 1.19 2.66 2.59 2.97L1 19.5v.5h2.23l2-2H9l2 2h2v-.5L11.5 18h-.08c1.69 0 2.58-1.37 2.58-3.06zM7 16.5c-.83 0-1.5-.67-1.5-1.5s.67-1.5 1.5-1.5 1.5.67 1.5 1.5-.67 1.5-1.5 1.5zm5-4.5H2V7h10v5z"/></symbol><symbol viewBox="0 0 16 19" id="trolley" xmlns="http://www.w3.org/2000/svg"><path d="M8 0C4 0 0 .5 0 4v9.5C0 15.43 1.57 17 3.5 17L2 18.5v.5h2.23l2-2H10l2 2h2v-.5L12.5 17c1.93 0 3.5-1.57 3.5-3.5V4c0-3.5-3.58-4-8-4zM3.5 15c-.83 0-1.5-.67-1.5-1.5S2.67 12 3.5 12s1.5.67 1.5 1.5S4.33 15 3.5 15zM7 8H2V4h5v4zm2 0V4h5v4H9zm3.5 7c-.83 0-1.5-.67-1.5-1.5s.67-1.5 1.5-1.5 1.5.67 1.5 1.5-.67 1.5-1.5 1.5z"/></symbol><symbol viewBox="0 0 24 20" id="twitter" xmlns="http://www.w3.org/2000/svg"><path d="M23.855 2.4a.476.476 0 00-.49-.109l-.809.28c.477-.577.829-1.18 1.014-1.751a.451.451 0 00-.606-.554c-1.135.476-2.14.89-2.938 1.138a.112.112 0 01-.091-.012c-.637-.356-2.23-1.175-3.363-1.162-2.863.052-5.193 2.499-5.193 5.454v.162c-4.216-.817-6.546-2.03-9.068-4.676L1.916.756l-.262.508c-1.37 2.65-.398 5.023 1.202 6.623-.71-.11-1.224-.338-1.658-.716a.49.49 0 00-.795.498c.538 1.906 1.98 3.47 3.503 4.406-.735-.001-1.34-.083-1.95-.474a.49.49 0 00-.73.576c.743 2.084 2.13 3.18 4.43 3.454-1.182.691-2.716 1.238-5.11 1.288a.558.558 0 00-.516.377.54.54 0 00.174.6c1.455 1.174 4.72 1.875 8.733 1.875 7.183 0 13.027-6.392 13.027-14.249v-.138c.93-.444 1.639-1.32 2.014-2.5a.473.473 0 00-.123-.483z"/></symbol><symbol viewBox="0 0 22 24" id="viber" xmlns="http://www.w3.org/2000/svg"><path fill-rule="evenodd" clip-rule="evenodd" d="M8.96.014C2.221.741.004 3.407 0 10.791c-.004 5.292 1.81 8.695 5.067 9.503l.28.07v1.398c0 1.644.009 1.71.292 2.01l.218.228h.654l.287-.228c.331-.262.928-.911 1.765-1.919l.584-.704 1.816-.006C19.301 21.119 22.011 18.459 22 10.31c-.01-6.665-2.037-9.218-8.076-10.165L13.131.02 11.163.004C10.08-.004 9.089 0 8.959.014zm3.495 1.73c5.95.45 7.838 2.542 7.83 8.683-.004 4.212-.735 6.31-2.63 7.546-1.284.837-3.96 1.383-6.86 1.398l-1.28.007-.847 1.046c-2.864 3.534-2.676 3.502-2.676.458v-2.107l-.367-.133c-3.078-1.117-4.194-3.835-3.867-9.422.153-2.62.735-4.328 1.86-5.458 1.507-1.515 4.989-2.31 8.837-2.019zm-1.851 2.67l-.092.14.07.153c.076.167.137.184.867.246 2.677.225 4.641 2.365 4.803 5.234.041.737.113.917.364.917.336 0 .378-.291.214-1.473-.434-3.116-2.83-5.357-5.727-5.357h-.408l-.091.14zm-3.983.592c-.87.313-1.743 1.37-1.744 2.11l-.001.341.387.895c1.784 4.13 3.504 6.021 7.222 7.942 1.89.976 2.352.987 3.231.077 1.222-1.263 1.112-1.765-.663-3.046-1.275-.92-1.684-.948-2.31-.16-.467.59-.677.648-1.387.38-1.321-.498-2.51-1.75-3.104-3.272-.265-.676-.21-.89.34-1.348.897-.749.764-1.343-.73-3.245-.553-.705-.793-.836-1.241-.674zm4.611.84c-.12.047-.191.293-.13.455l.055.143.282.038c2.021.271 3.308 1.598 3.308 3.412 0 .556.281.81.558.504l.106-.117-.036-.516c-.132-1.914-1.302-3.35-3.077-3.778-.525-.127-.953-.183-1.066-.14zm.386 1.709c-.235.26-.084.51.35.574.777.116 1.154.513 1.254 1.321.062.503.304.691.559.436l.1-.1-.038-.416c-.094-1.06-.778-1.771-1.822-1.894l-.3-.035-.103.114z"/></symbol><symbol viewBox="0 0 50 50" id="visa-svgrepo-com" xmlns="http://www.w3.org/2000/svg"><path d="M46.667 41.667H3.333A3.334 3.334 0 010 38.333V11.667a3.334 3.334 0 013.333-3.334h43.334A3.334 3.334 0 0150 11.667v26.666a3.334 3.334 0 01-3.333 3.334zm-21.89-12.831l-.498 3.125a9.5 9.5 0 004.032.738h-.015a7.177 7.177 0 004.549-1.296l-.024.015a4.285 4.285 0 001.747-3.451v-.021.001c0-1.528-1.022-2.797-3.037-3.778a10.626 10.626 0 01-1.573-.933l.032.022a1.048 1.048 0 01-.476-.822v-.003c.022-.36.23-.67.526-.833l.006-.003a2.715 2.715 0 011.539-.357h-.009.111l.107-.001c.895 0 1.744.193 2.509.539l-.04-.016.326.174.498-3.015a8.664 8.664 0 00-3.162-.586h-.068.004a7.038 7.038 0 00-4.385 1.295l.023-.016a4.058 4.058 0 00-1.718 3.314v.007c-.014 1.47 1.044 2.739 3.147 3.777.555.244 1.034.54 1.464.898l-.01-.009c.243.206.4.507.412.845v.005c0 .443-.263.824-.644.995l-.007.002a3.09 3.09 0 01-1.436.348h-.064.003-.104a7.844 7.844 0 01-3.33-.736l.05.02-.477-.238-.007-.006zm14.063 1.585h4.604c.075.317.22 1.012.435 2.083h3.343l-2.908-13.932h-2.778a1.853 1.853 0 00-1.885 1.16l-.004.012-5.333 12.76h3.778l.758-2.082-.01-.001zM20.682 18.572l-2.258 13.932h3.602l2.257-13.932h-3.601zM6.836 21.415l2.93 11.067h3.798l5.66-13.91H15.41l-3.52 9.506-.37-1.932-1.255-6.402a1.447 1.447 0 00-1.634-1.172l.008-.001H2.824l-.043.282c4.477 1.137 7.419 3.591 8.744 7.291a7.973 7.973 0 00-1.842-2.81l-.001-.002a8.475 8.475 0 00-2.788-1.9l-.055-.021-.003.004zm36.024 6.14h-3c.203-.535.68-1.831 1.433-3.888l.064-.196c.058-.145.13-.334.222-.564.092-.23.153-.42.195-.564l.26 1.193.824 4.014.002.005z"/></symbol><symbol viewBox="0 0 30 20" id="visibility_24px" xmlns="http://www.w3.org/2000/svg"><path clip-rule="evenodd" d="M.333 10C2.64 4.147 8.333 0 15 0c6.666 0 12.36 4.147 14.666 10-2.306 5.853-8 10-14.666 10C8.333 20 2.64 15.853.333 10zm26.427 0A13.027 13.027 0 0015 2.667c-5.054 0-9.56 2.84-11.76 7.333A13.027 13.027 0 0015 17.333c5.053 0 9.56-2.84 11.76-7.333zM15 6.667a3.335 3.335 0 010 6.666A3.335 3.335 0 0111.666 10 3.335 3.335 0 0115 6.667zM9 10c0-3.307 2.693-6 6-6 3.306 0 6 2.693 6 6s-2.694 6-6 6c-3.307 0-6-2.693-6-6z"/></symbol><symbol viewBox="0 0 24 24" id="volume_up_24px_outlined" xmlns="http://www.w3.org/2000/svg"><path fill-rule="evenodd" clip-rule="evenodd" d="M14 5.29V3.23c4.01.91 7 4.49 7 8.77 0 4.28-2.99 7.86-7 8.77v-2.06c2.89-.86 5-3.54 5-6.71s-2.11-5.85-5-6.71zM3 15V9h4l5-5v16l-5-5H3zm7 .17V8.83L7.83 11H5v2h2.83L10 15.17zM16.5 12A4.5 4.5 0 0014 7.97v8.05c1.48-.73 2.5-2.25 2.5-4.02z"/></symbol><symbol viewBox="0 0 24 24" id="youtube" xmlns="http://www.w3.org/2000/svg"><path d="M0 0v24h24V0H0zm13.52 5.002h.874v3.625c0 .048.004.096.013.143.026.15.136.22.28.17a.939.939 0 00.423-.325c.016-.02.013-.058.013-.088V5.002h.88v4.753h-.88v-.51c-.097.095-.18.185-.271.265a1.19 1.19 0 01-.56.291c-.33.065-.61-.04-.715-.38a1.258 1.258 0 01-.057-.355V5.002zm-2-.119c.697 0 1.261.565 1.261 1.261v2.468a1.261 1.261 0 01-2.522 0V6.144c0-.696.565-1.26 1.261-1.26zM8.128 3.321s.4 1.701.592 2.507l.592-2.507h1.002L9.2 7.014a.452.452 0 00-.018.129v2.61h-.924v-2.61a.454.454 0 00-.018-.13L7.126 3.322h1.002zm11.019 15.156a2.147 2.147 0 01-2.1 2.148 235.17 235.17 0 01-10.093 0 2.147 2.147 0 01-2.1-2.148v-5.253c0-1.168.933-2.122 2.1-2.147 3.364-.072 6.729-.072 10.092 0 1.168.025 2.101.98 2.101 2.147v5.253z"/></symbol></svg>