<svg width="32" height="32" viewBox="0 0 32 32" fill="none" xmlns="http://www.w3.org/2000/svg">
<g id="accessible_24px">
<path id="icon/action/accessible_24px" fill-rule="evenodd" clip-rule="evenodd" d="M16.0003 2.6665C14.5276 2.6665 13.3337 3.86041 13.3337 5.33317C13.3337 6.80593 14.5276 7.99984 16.0003 7.99984C17.4731 7.99984 18.667 6.80593 18.667 5.33317C18.667 3.86041 17.4731 2.6665 16.0003 2.6665ZM25.3337 17.3332V14.6665C23.2803 14.6932 21.2137 13.6665 19.907 12.2265L18.187 10.3198C17.9603 10.0665 17.6803 9.8665 17.3737 9.71984C17.367 9.71984 17.3637 9.7165 17.3603 9.71317C17.357 9.70984 17.3537 9.7065 17.347 9.7065H17.3337C16.867 9.43984 16.3337 9.3065 15.747 9.35984C14.347 9.47984 13.3337 10.7198 13.3337 12.1198V19.9998C13.3337 21.4665 14.5337 22.6665 16.0003 22.6665H22.667V29.3332H25.3337V21.9998C25.3337 20.5332 24.1337 19.3332 22.667 19.3332H18.667V14.7332C20.387 16.1598 23.0003 17.3198 25.3337 17.3332ZM9.33366 22.6665C9.33366 24.8798 11.1203 26.6665 13.3337 26.6665C15.0803 26.6665 16.5603 25.5465 17.107 23.9998H19.867C19.2537 27.0398 16.5603 29.3332 13.3337 29.3332C9.65366 29.3332 6.66699 26.3465 6.66699 22.6665C6.66699 19.4398 8.96032 16.7465 12.0003 16.1332V18.8932C10.4537 19.4532 9.33366 20.9198 9.33366 22.6665Z" fill="black"/>
</g>
</svg>
