<svg width="32" height="32" viewBox="0 0 32 32" fill="none" xmlns="http://www.w3.org/2000/svg">
<path d="M23.9036 3.47471C21.7409 1.23404 18.9342 0 16.0001 0C9.8512 0 4.84863 5.00257 4.84863 11.1515C4.84863 11.9548 5.49988 12.6061 6.30318 12.6061C7.10648 12.6061 7.75772 11.9548 7.75772 11.1515C7.75772 6.60664 11.4553 2.90909 16.0001 2.90909C20.7176 2.90909 24.2426 7.2607 24.2426 11.1515C24.2426 15.5022 19.574 22.4683 17.767 24.7963C16.3638 26.5496 14.512 28.6008 13.7999 29.0909H10.182C9.37867 29.0909 8.72742 29.7422 8.72742 30.5455C8.72742 31.3488 9.37867 32 10.182 32H14.0606C14.0607 32 14.0607 32 14.0609 32C14.8739 32 15.7315 31.5368 17.9297 29.0943C19.0362 27.8648 20.0043 26.6564 20.045 26.6056C20.0491 26.6004 20.0533 26.5952 20.0574 26.59C20.3471 26.2175 27.1517 17.397 27.1517 11.1515C27.1517 8.41154 25.9678 5.61348 23.9036 3.47471Z" fill="black"/>
<path d="M12.1215 21.3335C11.3182 21.3335 10.667 21.9848 10.667 22.7881C10.667 23.5914 11.3182 24.2426 12.1215 24.2426C14.5276 24.2426 16.4852 22.2852 16.4852 19.879C16.4852 17.9827 15.269 16.366 13.5761 15.7655V11.1517C13.5761 9.81497 14.6636 8.72745 16.0003 8.72745C17.3371 8.72745 18.4246 9.81497 18.4246 11.1517C18.4246 11.955 19.0758 12.6062 19.8791 12.6062C20.6824 12.6062 21.3337 11.955 21.3337 11.1517C21.3337 8.21089 18.9411 5.81836 16.0003 5.81836C13.0595 5.81836 10.667 8.21089 10.667 11.1517V16.9699C10.667 17.7732 11.3182 18.4244 12.1215 18.4244C12.9236 18.4244 13.5761 19.0769 13.5761 19.879C13.5761 20.681 12.9236 21.3335 12.1215 21.3335Z" fill="black"/>
</svg>
