<svg width="32" height="32" viewBox="0 0 32 32" fill="none" xmlns="http://www.w3.org/2000/svg">
<g clip-path="url(#clip0_1403_9108)">
<path d="M31.5067 6.22309C30.8907 5.16442 29.7573 4.44531 28.4444 4.44531H16V6.22309H31.5067ZM0 22.2231H32V24.0009H0V22.2231ZM16 15.112H32V16.8898H16V15.112ZM16 11.5564H32V13.3342H16V11.5564ZM0 18.6675H32V20.4453H0V18.6675ZM3.55556 27.5564H28.4444C29.7573 27.5564 30.8907 26.8373 31.5067 25.7786H0.493333C1.10933 26.8373 2.24267 27.5564 3.55556 27.5564ZM16 8.00087H32V9.77865H16V8.00087Z" fill="#6C6C6C"/>
<path d="M0.0604444 24.604C0.0755556 24.6867 0.0924444 24.7693 0.112889 24.8502C0.136 24.94 0.164444 25.0262 0.194667 25.1133C0.273778 25.3435 0.369778 25.5658 0.490667 25.7738L0.493333 25.7782H31.5067L31.5084 25.7747C31.6278 25.5651 31.7266 25.3445 31.8036 25.116C31.8621 24.9492 31.9073 24.778 31.9387 24.604C31.9751 24.4084 32 24.2075 32 24.0004H0C0 24.2075 0.0248889 24.4075 0.0604444 24.604ZM0 20.4449H32V22.2227H0V20.4449ZM0 16.8893V18.6671H32V16.8893H16H0ZM16 13.3338H32V15.1115H16V13.3338ZM16 9.77821H32V11.556H16V9.77821ZM0.493333 6.22266L0.490667 6.2271L0.493333 6.22266ZM0.113778 7.15066C0.136 7.05999 0.167111 6.97377 0.195556 6.88666C0.164687 6.9735 0.137405 7.06157 0.113778 7.15066ZM16 8.00043H32C32 7.79332 31.9751 7.59243 31.9387 7.39599C31.9075 7.22186 31.862 7.05061 31.8027 6.88399C31.7256 6.65449 31.6265 6.43301 31.5067 6.22266H16V8.00043Z" fill="#EEEEEE"/>
<path d="M16 4.44531H3.55556C2.61256 4.44531 1.70819 4.81991 1.0414 5.48671C0.374602 6.15351 0 7.05788 0 8.00087L0 16.8898H16V4.44531Z" fill="#565656"/>
<path d="M1.7793 6.86799L2.32863 7.2671L2.11885 7.91154L2.6673 7.51332L3.21663 7.91154L3.00685 7.2671L3.55619 6.86799H2.87707L2.6673 6.22266L2.45841 6.86799H1.7793ZM3.55707 8.64577L4.10641 9.04488L3.89663 9.68932L4.44507 9.2911L4.99441 9.68932L4.78463 9.04488L5.33396 8.64577H4.65485L4.44507 8.00043L4.23619 8.64577H3.55707ZM7.11263 8.64577L7.66196 9.04488L7.45219 9.68932L8.00063 9.2911L8.54996 9.68932L8.34019 9.04488L8.88952 8.64577H8.21041L8.00063 8.00043L7.79174 8.64577H7.11263ZM10.6682 8.64577L11.2175 9.04488L11.0077 9.68932L11.5562 9.2911L12.1055 9.68932L11.8957 9.04488L12.4451 8.64577H11.766L11.5562 8.00043L11.3473 8.64577H10.6682ZM3.55707 12.2013L4.10641 12.6004L3.89663 13.2449L4.44507 12.8467L4.99441 13.2449L4.78463 12.6004L5.33396 12.2013H4.65485L4.44507 11.556L4.23619 12.2013H3.55707ZM7.11263 12.2013L7.66196 12.6004L7.45219 13.2449L8.00063 12.8467L8.54996 13.2449L8.34019 12.6004L8.88952 12.2013H8.21041L8.00063 11.556L7.79174 12.2013H7.11263ZM10.6682 12.2013L11.2175 12.6004L11.0077 13.2449L11.5562 12.8467L12.1055 13.2449L11.8957 12.6004L12.4451 12.2013H11.766L11.5562 11.556L11.3473 12.2013H10.6682ZM5.33485 6.86799L5.88419 7.2671L5.67441 7.91154L6.22285 7.51332L6.77219 7.91154L6.56241 7.2671L7.11174 6.86799H6.43263L6.22285 6.22266L6.01396 6.86799H5.33485ZM8.89041 6.86799L9.43974 7.2671L9.22996 7.91154L9.77841 7.51332L10.3277 7.91154L10.118 7.2671L10.6673 6.86799H9.98819L9.77841 6.22266L9.56952 6.86799H8.89041ZM12.446 6.86799L12.9953 7.2671L12.7855 7.91154L13.334 7.51332L13.8833 7.91154L13.6735 7.2671L14.2229 6.86799H13.5437L13.334 6.22266L13.1251 6.86799H12.446ZM1.7793 10.4235L2.32863 10.8227L2.11885 11.4671L2.6673 11.0689L3.21663 11.4671L3.00685 10.8227L3.55619 10.4235H2.87707L2.6673 9.77821L2.45841 10.4235H1.7793ZM5.67441 11.4671L6.22285 11.0689L6.77219 11.4671L6.56241 10.8227L7.11174 10.4235H6.43263L6.22285 9.77821L6.01396 10.4235H5.33485L5.88419 10.8227L5.67441 11.4671ZM8.89041 10.4235L9.43974 10.8227L9.22996 11.4671L9.77841 11.0689L10.3277 11.4671L10.118 10.8227L10.6673 10.4235H9.98819L9.77841 9.77821L9.56952 10.4235H8.89041ZM12.446 10.4235L12.9953 10.8227L12.7855 11.4671L13.334 11.0689L13.8833 11.4671L13.6735 10.8227L14.2229 10.4235H13.5437L13.334 9.77821L13.1251 10.4235H12.446ZM1.7793 13.9791L2.32863 14.3782L2.11885 15.0227L2.6673 14.6244L3.21663 15.0227L3.00685 14.3782L3.55619 13.9791H2.87707L2.6673 13.3338L2.45841 13.9791H1.7793ZM5.67441 15.0227L6.22285 14.6244L6.77219 15.0227L6.56241 14.3782L7.11174 13.9791H6.43263L6.22285 13.3338L6.01396 13.9791H5.33485L5.88419 14.3782L5.67441 15.0227ZM8.89041 13.9791L9.43974 14.3782L9.22996 15.0227L9.77841 14.6244L10.3277 15.0227L10.118 14.3782L10.6673 13.9791H9.98819L9.77841 13.3338L9.56952 13.9791H8.89041ZM12.446 13.9791L12.9953 14.3782L12.7855 15.0227L13.334 14.6244L13.8833 15.0227L13.6735 14.3782L14.2229 13.9791H13.5437L13.334 13.3338L13.1251 13.9791H12.446Z" fill="white"/>
</g>
<defs>
<clipPath id="clip0_1403_9108">
<rect width="32" height="32" fill="white"/>
</clipPath>
</defs>
</svg>
