<svg width="123" height="24" viewBox="0 0 123 24" fill="none" xmlns="http://www.w3.org/2000/svg">
<mask id="mask0_1036_3984" style="mask-type:alpha" maskUnits="userSpaceOnUse" x="0" y="2" width="123" height="20">
<path fill-rule="evenodd" clip-rule="evenodd" d="M0 2.47217H122.298V21.3676H0V2.47217Z" fill="white"/>
</mask>
<g mask="url(#mask0_1036_3984)">
<path fill-rule="evenodd" clip-rule="evenodd" d="M122.297 21.1165H117.846L113.572 14.1642L109.297 21.1165H105.124L111.221 11.6373L105.513 2.73641H109.813L113.773 9.34924L117.658 2.73641H121.857L116.086 11.8509L122.297 21.1165ZM103.091 21.1165H92.5059V2.73641H103.091V5.92957H96.4032V9.96536H102.626V13.1585H96.4032V17.8981H103.091V21.1165ZM84.6855 21.1165H80.7884V5.98008H75.7974V2.73641H89.6767V5.98008H84.6855V21.1165ZM38.7317 15.5339H38.9079C40.2572 15.5339 41.3153 15.1801 42.0824 14.4717C42.8492 13.7636 43.2327 12.7932 43.2327 11.5614C43.2327 10.4216 42.8764 9.50581 42.1641 8.81432C41.4517 8.12283 40.4792 7.77718 39.2474 7.77718H38.7317V15.5339ZM35.2248 7.77718H34.7093C33.4771 7.77718 32.5048 8.12096 31.7926 8.80796C31.0799 9.49552 30.7238 10.4131 30.7238 11.5614C30.7238 12.7684 31.1011 13.732 31.8554 14.4529C32.6096 15.1737 33.674 15.5339 35.0484 15.5339H35.2248V7.77718ZM35.2287 21.3676V18.539H34.9519C33.3931 18.539 32.0267 18.2644 30.8534 17.7154C29.6799 17.1667 28.7558 16.3431 28.0815 15.245C27.4066 14.1473 27.0692 12.9277 27.0692 11.5867C27.0692 10.2877 27.369 9.11642 27.9681 8.07292C28.5674 7.02942 29.4328 6.21224 30.5643 5.62137C31.6959 5.03051 33.0283 4.73499 34.5623 4.73499H35.2287V2.47217H38.7359V4.73499H39.4023C40.9276 4.73499 42.2562 5.03051 43.3878 5.62137C44.519 6.21224 45.3865 7.02942 45.9901 8.07292C46.5935 9.11642 46.8952 10.2877 46.8952 11.5867C46.8952 12.9277 46.5577 14.1473 45.8831 15.245C45.2084 16.3431 44.2844 17.1667 43.111 17.7154C41.9376 18.2644 40.5717 18.539 39.0127 18.539H38.7359V21.3676H35.2287ZM23.5827 21.1165H19.6979V13.1836H12.4188V21.1165H8.52146V2.73641H12.4188V9.9401H19.6979V2.73641H23.5827V21.1165ZM0 21.1165H3.89737V2.73641H0V21.1165Z" fill="white"/>
</g>
<path fill-rule="evenodd" clip-rule="evenodd" d="M67.032 11.7677C66.9983 11.7191 66.9641 11.6703 66.9293 11.6215C66.9194 11.6078 66.9098 11.594 66.8999 11.5803L66.8975 11.5945L66.8902 11.5846C66.8898 11.5863 66.8894 11.5884 66.8892 11.59C66.8851 11.6138 66.8808 11.6376 66.8763 11.6622C66.8718 11.6875 66.8672 11.7133 66.8623 11.7397C66.8614 11.7447 66.8604 11.7498 66.8595 11.7548C66.8496 11.8083 66.8391 11.8643 66.8281 11.9213C66.8258 11.9327 66.824 11.9439 66.8215 11.9555C66.8103 12.0131 66.7987 12.0724 66.7866 12.1336C66.7837 12.1467 66.7811 12.1598 66.7785 12.1731C66.7654 12.2366 66.7521 12.3016 66.7381 12.3683C66.7366 12.3752 66.7349 12.3824 66.7334 12.3891C66.7192 12.4564 66.7043 12.5251 66.6887 12.5952C66.6872 12.6019 66.6857 12.6085 66.6844 12.615C66.6683 12.687 66.6517 12.7604 66.6343 12.835C66.6313 12.8472 66.6285 12.8593 66.6257 12.8717C66.6081 12.9459 66.5903 13.0213 66.5715 13.098C66.5687 13.109 66.5658 13.1204 66.563 13.1316C66.5434 13.2117 66.523 13.2927 66.5017 13.3752L66.4935 13.4086C66.4512 13.5721 66.4065 13.7328 66.3612 13.892C66.3554 13.9123 66.35 13.9333 66.3444 13.9535C66.3399 13.9694 66.3347 13.9845 66.3302 14.0003C66.2857 14.1538 66.24 14.3057 66.1927 14.455C66.1899 14.4637 66.1873 14.4727 66.1847 14.4815C66.1785 14.501 66.1718 14.5193 66.1658 14.5384C66.1439 14.6065 66.1224 14.6747 66.1001 14.7415C66.1194 14.7335 66.1385 14.7254 66.1575 14.7172C66.2114 14.6944 66.2649 14.6715 66.3175 14.6487C66.3468 14.636 66.3756 14.6233 66.4046 14.6106C66.4536 14.5891 66.5019 14.5676 66.5496 14.546C66.5774 14.5333 66.6055 14.5208 66.633 14.5081C66.6826 14.4854 66.731 14.4628 66.7787 14.4402C66.8021 14.4291 66.8256 14.4183 66.8487 14.4073C66.9182 14.3742 66.9865 14.3409 67.0525 14.3078C67.1524 14.2578 67.2504 14.2049 67.3475 14.1503C67.3787 14.1327 67.4096 14.114 67.4404 14.0958C67.5061 14.0575 67.5716 14.0184 67.6359 13.9776C67.6705 13.9559 67.7049 13.9335 67.7392 13.911C67.7999 13.8712 67.86 13.8302 67.9193 13.7885C67.952 13.7655 67.9847 13.7427 68.0171 13.7191C68.0322 13.7079 68.0468 13.6959 68.062 13.6847C68.0534 13.6619 68.0455 13.6389 68.0365 13.6161C68.0201 13.574 68.0029 13.5321 67.9857 13.49C67.9561 13.4184 67.9254 13.3467 67.8937 13.2757C67.8753 13.2341 67.8568 13.1926 67.8375 13.1513C67.8024 13.0763 67.7657 13.0016 67.7283 12.9272C67.7104 12.8919 67.6931 12.8563 67.675 12.8212C67.6181 12.7127 67.5594 12.6049 67.4975 12.4983C67.4565 12.4276 67.4137 12.3565 67.3701 12.2853C67.3559 12.2625 67.3413 12.2395 67.3271 12.2166C67.2964 12.1676 67.2654 12.1184 67.2336 12.0691C67.2164 12.0425 67.1988 12.0159 67.1812 11.9892C67.1505 11.9426 67.1195 11.896 67.0879 11.8495C67.0694 11.8222 67.0508 11.795 67.032 11.7677ZM67.7682 14.7436C67.7423 14.7586 67.7162 14.7733 67.69 14.7881C67.5862 14.8465 67.4812 14.9032 67.3746 14.9565C67.3144 14.9868 67.2525 15.0169 67.1896 15.0472C67.1702 15.0565 67.1502 15.0659 67.1304 15.0752C67.0864 15.0962 67.0421 15.1171 66.9966 15.1383C66.9723 15.1495 66.9474 15.1607 66.9227 15.1721C66.8894 15.1873 66.8567 15.2024 66.8229 15.2178C66.8139 15.2217 66.8045 15.2258 66.7955 15.2297C66.7688 15.2417 66.7413 15.2539 66.7142 15.2658C66.6721 15.2843 66.63 15.3029 66.5872 15.3216C66.5584 15.3339 66.5288 15.3464 66.4995 15.359C66.457 15.3771 66.4145 15.3953 66.3713 15.4134C66.3407 15.4261 66.31 15.4388 66.2791 15.4516C66.2355 15.4697 66.1918 15.4877 66.1473 15.5056C66.116 15.5183 66.0844 15.531 66.0528 15.5438C66.0072 15.5621 65.9613 15.5802 65.915 15.5986C65.8835 15.6109 65.8519 15.6233 65.8199 15.6356C65.8018 15.6429 65.7838 15.65 65.7653 15.6571C65.7618 15.6663 65.7578 15.6749 65.7543 15.684C65.7012 15.8176 65.6467 15.9491 65.5914 16.0781C65.5822 16.0995 65.573 16.1204 65.5637 16.1414C65.5076 16.27 65.4503 16.3967 65.3916 16.5205C65.383 16.5386 65.3742 16.5568 65.3656 16.5747C65.3052 16.7008 65.2439 16.8246 65.181 16.9454C65.179 16.9492 65.1775 16.9531 65.1754 16.9567C65.1711 16.9649 65.1666 16.9724 65.1625 16.9806C65.0961 17.1067 65.0289 17.2305 64.9603 17.3504C64.8963 17.4619 64.829 17.5711 64.7605 17.6794C64.7426 17.708 64.7241 17.7366 64.7056 17.7652C64.6444 17.8591 64.5819 17.9523 64.5176 18.0438C64.5079 18.0578 64.4983 18.0722 64.4882 18.0862C64.4278 18.1711 64.3661 18.2551 64.3027 18.3376C65.5777 18.7255 66.9452 18.7293 68.2969 18.3477C68.6501 17.056 68.6502 15.7076 68.2975 14.4094C68.224 14.4604 68.1492 14.5104 68.0736 14.5588C68.0719 14.5599 68.0702 14.5611 68.0684 14.5622C67.97 14.625 67.8695 14.6851 67.7682 14.7436ZM57.7564 21.581C56.7529 21.581 55.7509 21.3979 54.7959 21.0401C56.8881 23.7348 60.5457 24.7223 63.709 23.4501C62.1341 23.1768 60.663 22.4717 59.4586 21.4029C58.8964 21.5215 58.3263 21.581 57.7564 21.581ZM64.8967 22.848C63.2233 22.7861 61.6222 22.1988 60.3136 21.1743C61.6426 20.7413 62.8323 19.978 63.7952 18.9375L63.8001 18.9394L63.8038 18.9351C64.5976 19.2108 65.4416 19.3507 66.2971 19.3507C66.8715 19.3507 67.4508 19.2871 68.0231 19.1621C67.4169 20.6742 66.327 21.9631 64.8967 22.848Z" fill="white"/>
<path fill-rule="evenodd" clip-rule="evenodd" d="M64.493 16.6994C64.5205 16.6476 64.548 16.5956 64.5751 16.5426C64.5895 16.5146 64.6036 16.4863 64.6178 16.4579C64.6428 16.4083 64.6675 16.3582 64.6918 16.3075C64.7066 16.2776 64.721 16.2475 64.7354 16.2172C64.7595 16.1661 64.7835 16.1147 64.8072 16.0629C64.8151 16.0457 64.8228 16.0286 64.8306 16.0114L64.6426 16.0829L64.652 16.0674C64.6486 16.0685 64.6451 16.0696 64.6419 16.0707C64.5927 16.0881 64.5424 16.1059 64.49 16.124C64.4848 16.1259 64.4797 16.1276 64.4743 16.1294C64.4186 16.1487 64.3602 16.1685 64.3009 16.1886C64.2876 16.1929 64.2745 16.1973 64.2611 16.2018C64.2018 16.2217 64.141 16.2419 64.0787 16.2622C64.066 16.2664 64.0529 16.2705 64.04 16.2746C63.9751 16.2957 63.9094 16.3169 63.8415 16.3382C63.8399 16.3387 63.838 16.3393 63.8363 16.3399C63.7673 16.3616 63.6962 16.3834 63.6242 16.4053C63.6109 16.4094 63.5976 16.4134 63.5844 16.4175C63.5599 16.425 63.5352 16.4323 63.5103 16.4396C63.4639 16.4536 63.417 16.4674 63.3695 16.4813C63.3556 16.4852 63.3418 16.4893 63.3277 16.4932C63.3019 16.5007 63.2765 16.5084 63.2503 16.5157C63.1992 16.5303 63.1478 16.5449 63.0954 16.5595C63.0788 16.5653 63.0618 16.5701 63.0446 16.5739C62.8813 16.6189 62.7193 16.6612 62.5577 16.702C62.5222 16.711 62.4864 16.7199 62.4511 16.7287C62.2945 16.7674 62.1389 16.8041 61.9846 16.8383C61.9573 16.8443 61.9306 16.8499 61.9032 16.8557C61.8331 16.8711 61.7626 16.8866 61.693 16.901C61.7078 16.9122 61.7224 16.9232 61.7373 16.9343C61.7865 16.9717 61.8355 17.0084 61.884 17.0443C61.9075 17.0617 61.9307 17.0787 61.9539 17.0957C61.9992 17.1288 62.0441 17.1614 62.0886 17.1933C62.112 17.2102 62.1355 17.227 62.1587 17.2435C62.2048 17.2762 62.25 17.3078 62.2951 17.339C62.3149 17.3531 62.3351 17.3671 62.3548 17.3808C62.4189 17.4245 62.4823 17.4674 62.5444 17.5087C62.6383 17.5706 62.7339 17.6295 62.83 17.6864C62.8605 17.7045 62.8914 17.7214 62.9222 17.7389C62.9892 17.7771 63.0565 17.8145 63.1246 17.8504C63.1602 17.8691 63.1959 17.8874 63.232 17.9054C63.2976 17.9385 63.3638 17.9703 63.4302 18.0012C63.4656 18.0174 63.5008 18.0339 63.5363 18.0496C63.5535 18.0573 63.5709 18.0638 63.5881 18.0711C63.604 18.0519 63.6203 18.033 63.636 18.0133C63.6639 17.9783 63.6914 17.9428 63.7187 17.9073C63.7665 17.8452 63.8137 17.7823 63.8599 17.7185C63.8864 17.6821 63.9128 17.6456 63.9388 17.6084C63.9865 17.5405 64.0329 17.4711 64.0785 17.4015C64.1002 17.3684 64.1227 17.3357 64.1438 17.3022C64.2093 17.1989 64.2731 17.0946 64.3342 16.9882C64.3752 16.9167 64.4158 16.8436 64.4558 16.7695C64.4683 16.7463 64.4807 16.7227 64.493 16.6994ZM62.5256 18.3489C62.4998 18.3341 62.4741 18.3189 62.4483 18.3038C62.3455 18.2426 62.2433 18.1798 62.1429 18.1136C62.0413 18.0464 61.9372 17.975 61.8311 17.9009C61.8212 17.894 61.8113 17.8873 61.8012 17.8801C61.6998 17.8089 61.5964 17.7343 61.4916 17.657C61.4765 17.6458 61.4613 17.6347 61.4462 17.6235C61.3429 17.547 61.2378 17.4675 61.1316 17.3854C61.1142 17.3721 61.097 17.3587 61.0794 17.3452C60.973 17.2625 60.8652 17.1774 60.756 17.0895C60.7481 17.0834 60.7407 17.0776 60.7328 17.0714C60.6615 17.0817 60.5923 17.0893 60.5218 17.0989C60.4487 17.1086 60.3752 17.1189 60.303 17.1273C60.2014 17.1393 60.1019 17.1488 60.0024 17.1584C59.9366 17.1647 59.87 17.1722 59.8049 17.1774C59.6953 17.1866 59.5883 17.1926 59.4813 17.1986C59.4291 17.2016 59.3756 17.206 59.3242 17.2081C59.1669 17.215 59.0124 17.219 58.8616 17.2191H58.8442C58.7315 17.2191 58.6189 17.2165 58.5068 17.2122C58.4458 17.21 58.3849 17.2068 58.3241 17.2032C58.2586 17.1995 58.1933 17.1946 58.1281 17.1894C58.063 17.184 57.9979 17.1789 57.933 17.1722C57.8484 17.1634 57.7641 17.1541 57.6801 17.1428C57.9827 18.4291 58.6759 19.6387 59.6682 20.6078C60.9634 20.2681 62.1307 19.5942 63.0783 18.6395C62.998 18.6016 62.9182 18.5623 62.8389 18.5213C62.8385 18.5213 62.8383 18.5211 62.8381 18.5209C62.7328 18.4667 62.6288 18.4087 62.5256 18.3489ZM58.8281 20.7784C57.8452 19.699 57.1786 18.3878 56.9147 17.0084L56.9098 17.0076L56.909 17.0031C55.5277 16.6904 54.2721 16.0425 53.2314 15.1082C52.9986 16.7551 53.2909 18.4357 54.0746 19.9146C55.5558 20.7103 57.2162 21.0094 58.8281 20.7784ZM52.9585 19.189C51.6543 18.1706 50.7185 16.7644 50.2827 15.1379C49.8437 13.4996 49.9561 11.8014 50.5885 10.2585C50.8513 11.8364 51.546 13.2983 52.6059 14.4806C52.282 16.0611 52.4075 17.6899 52.9585 19.189Z" fill="white"/>
<path fill-rule="evenodd" clip-rule="evenodd" d="M56.2828 9.26151C56.3088 9.24655 56.3346 9.23177 56.3608 9.21718C56.4642 9.1592 56.5686 9.10271 56.6746 9.04978C56.7349 9.01967 56.7966 8.98955 56.8594 8.95925C56.8808 8.94915 56.9028 8.93886 56.9245 8.92858C56.9668 8.90838 57.0093 8.88818 57.0528 8.86798C57.079 8.85601 57.1058 8.84385 57.1325 8.83169C57.1722 8.81355 57.212 8.7954 57.2526 8.77726C57.2823 8.76379 57.3128 8.7507 57.3431 8.73724C57.382 8.72003 57.4209 8.70301 57.4608 8.6858C57.4924 8.67214 57.5247 8.6583 57.5569 8.64465C57.5962 8.62782 57.6358 8.61098 57.6761 8.59434C57.7093 8.58031 57.743 8.56647 57.7765 8.55263C57.8169 8.53598 57.8575 8.51952 57.8984 8.50287C57.9334 8.48866 57.9686 8.47444 58.0041 8.46041C58.023 8.45275 58.0413 8.44526 58.0604 8.4376C58.0825 8.42899 58.1053 8.4202 58.1276 8.4116C58.1639 8.39719 58.2003 8.38298 58.237 8.36876C58.2531 8.36259 58.2686 8.35642 58.2847 8.35006C58.2884 8.34108 58.2922 8.33267 58.2959 8.3235C58.3488 8.18977 58.4033 8.05809 58.459 7.92884C58.4682 7.9079 58.477 7.88695 58.4861 7.86619C58.5422 7.73769 58.5997 7.61106 58.6582 7.48724C58.667 7.46872 58.676 7.45039 58.6848 7.43206C58.7448 7.30637 58.806 7.18293 58.8686 7.06266C58.875 7.05013 58.8819 7.03797 58.8885 7.02562C58.9543 6.89993 59.0214 6.77649 59.0899 6.65715C59.1539 6.54568 59.2208 6.43644 59.2893 6.32834C59.3074 6.29953 59.3259 6.2711 59.3443 6.24248C59.4052 6.1484 59.4677 6.05563 59.5322 5.96417C59.5422 5.94995 59.5517 5.93555 59.5616 5.92152C59.6222 5.83642 59.6841 5.75244 59.7472 5.66995C59.1034 5.47412 58.4358 5.37592 57.7584 5.37592C57.0945 5.37592 56.4214 5.47131 55.752 5.66004C55.3996 6.95118 55.3998 8.299 55.7523 9.59687C55.8266 9.54544 55.9016 9.49512 55.9775 9.44631C55.9805 9.44444 55.9833 9.44275 55.9863 9.44088C56.0838 9.3786 56.1829 9.31931 56.2828 9.26151ZM57.2222 12.0883C57.2237 12.0806 57.225 12.0733 57.2265 12.0657C57.2377 12.0069 57.2499 11.9461 57.2624 11.8837C57.2645 11.8734 57.2667 11.8631 57.2686 11.8528C57.2817 11.7888 57.295 11.7236 57.3092 11.656C57.3105 11.6501 57.312 11.6435 57.3133 11.6375C57.3273 11.5711 57.3419 11.5032 57.3572 11.4338C57.3589 11.4273 57.3602 11.4208 57.3615 11.414C57.3772 11.3439 57.3935 11.2721 57.4105 11.1989C57.4137 11.186 57.4165 11.1729 57.4197 11.1598C57.4367 11.0873 57.4543 11.0136 57.4725 10.9386C57.4754 10.9266 57.4784 10.9142 57.4814 10.9021C57.4885 10.8737 57.4953 10.8454 57.5024 10.8168C57.5153 10.7659 57.5282 10.7147 57.5415 10.6627C57.5847 10.4943 57.6299 10.3288 57.6761 10.1646C57.6864 10.1283 57.6965 10.0922 57.7068 10.0563C57.7072 10.055 57.7076 10.0539 57.7079 10.0527C57.7541 9.89207 57.8015 9.73308 57.8507 9.5769C57.8529 9.56961 57.8551 9.56213 57.8574 9.55483C57.8619 9.54062 57.8669 9.52696 57.8714 9.51256C57.8978 9.42951 57.9242 9.34666 57.9515 9.26492C57.9303 9.27371 57.9094 9.28269 57.8884 9.29148C57.8368 9.31336 57.7856 9.33506 57.7354 9.35694C57.7051 9.37004 57.6754 9.38294 57.6457 9.39604C57.597 9.41754 57.549 9.43887 57.5018 9.46019C57.4739 9.47272 57.4463 9.48525 57.4188 9.49779C57.3683 9.52098 57.3185 9.54417 57.2693 9.56736C57.2473 9.57765 57.2248 9.58813 57.2033 9.59841C57.1332 9.63208 57.0645 9.66537 56.9977 9.69867C56.8986 9.74823 56.8008 9.80079 56.7041 9.85522C56.6734 9.87261 56.6433 9.89095 56.6128 9.90871C56.5466 9.94743 56.4809 9.98671 56.4162 10.0277C56.382 10.0492 56.3482 10.0714 56.3143 10.0935C56.2529 10.1339 56.1925 10.1752 56.1323 10.2175C56.0999 10.2403 56.0676 10.263 56.0358 10.2863C56.0201 10.2978 56.0049 10.3101 55.9894 10.3217C55.9982 10.3449 56.0061 10.3685 56.0152 10.3917C56.0313 10.4326 56.0481 10.4738 56.065 10.5147C56.0949 10.5875 56.1259 10.6601 56.1581 10.7321C56.1764 10.773 56.1944 10.8138 56.2135 10.8544C56.2488 10.9303 56.2861 11.0059 56.324 11.0811C56.3414 11.1159 56.3583 11.1509 56.3764 11.1855C56.4333 11.2943 56.492 11.4026 56.5539 11.5094C56.595 11.5801 56.6377 11.6512 56.6815 11.7224C56.696 11.7462 56.7114 11.7703 56.7263 11.7943C56.7563 11.842 56.7864 11.89 56.8174 11.9381C56.8354 11.966 56.8539 11.9938 56.8722 12.0217C56.9018 12.0668 56.9319 12.1117 56.9626 12.1569C56.9818 12.1856 57.0015 12.2144 57.0213 12.243C57.0529 12.289 57.0855 12.335 57.1182 12.3812C57.1315 12.3999 57.1446 12.4186 57.1582 12.4375C57.1588 12.4334 57.1597 12.4285 57.1605 12.4244C57.1786 12.3215 57.199 12.2091 57.2222 12.0883ZM69.2582 2.96979C68.2381 1.6504 66.8235 0.703414 65.1848 0.264429C63.5578 -0.17175 61.8714 -0.0642017 60.3367 0.556587C61.9127 0.82948 63.3859 1.53518 64.5927 2.60618C66.146 2.27848 67.7598 2.40773 69.2582 2.96979ZM59.1488 1.15998C60.8215 1.22133 62.4233 1.80864 63.7336 2.834C62.4052 3.267 61.2164 4.03012 60.2535 5.07026L60.2486 5.06839L60.2449 5.0725C58.9027 4.60378 57.4608 4.52634 56.0252 4.84375C56.632 3.33302 57.7204 2.04525 59.1488 1.15998Z" fill="white"/>
<path fill-rule="evenodd" clip-rule="evenodd" d="M71.4481 9.52771C72.5079 10.7081 73.2029 12.1687 73.4659 13.746C74.7544 10.586 73.7811 6.92392 71.0972 4.82064C71.6477 6.31977 71.7726 7.94796 71.4481 9.52771ZM59.4114 7.92446L59.4038 7.93736C59.4625 7.91641 59.5237 7.89509 59.5871 7.87321C59.6097 7.86535 59.6335 7.85731 59.6567 7.84945C59.7055 7.83281 59.755 7.81597 59.8065 7.79876C59.8364 7.78885 59.8673 7.77856 59.8979 7.76865C59.9458 7.75275 59.9946 7.73685 60.0448 7.72058C60.0775 7.71011 60.1104 7.69963 60.1441 7.68878C60.1953 7.6727 60.2475 7.65624 60.3004 7.63997C60.3349 7.6293 60.3685 7.61883 60.4035 7.60817C60.4615 7.59059 60.521 7.57282 60.5808 7.55505C60.6121 7.54588 60.6424 7.53672 60.674 7.52755C60.766 7.50081 60.8597 7.47387 60.9558 7.44731C60.9725 7.44152 60.9893 7.43684 61.0062 7.4331C61.1698 7.38784 61.3322 7.34556 61.4938 7.30479C61.5134 7.29974 61.5336 7.29394 61.5532 7.28908C61.5676 7.28552 61.5817 7.28272 61.5959 7.27916L61.597 7.27879C61.7541 7.24007 61.9105 7.20304 62.0656 7.16862C62.0734 7.16694 62.0811 7.16488 62.0889 7.1632C62.0897 7.16301 62.0902 7.16283 62.091 7.16264C62.1086 7.1589 62.1256 7.15572 62.143 7.15198C62.2143 7.13645 62.2859 7.12055 62.3566 7.10596C62.3392 7.09268 62.3222 7.07997 62.3048 7.06669C62.2595 7.03264 62.2143 6.9986 62.1695 6.9655C62.1443 6.94679 62.1192 6.92828 62.094 6.90976C62.05 6.87759 62.0064 6.84598 61.9632 6.81493C61.9395 6.79791 61.9157 6.7807 61.8922 6.76405C61.8458 6.73113 61.7998 6.69896 61.7539 6.66735C61.7349 6.65389 61.7152 6.64023 61.6961 6.62695C61.6316 6.58281 61.5678 6.5396 61.5052 6.49827C61.412 6.43692 61.3174 6.37838 61.2214 6.32152C61.1908 6.30337 61.1593 6.28616 61.1283 6.2684C61.0619 6.23061 60.9953 6.19358 60.9278 6.15804C60.8919 6.13896 60.8558 6.12063 60.8193 6.1023C60.754 6.06938 60.688 6.03759 60.6218 6.00691C60.5861 5.99027 60.5505 5.97381 60.5146 5.95791C60.4974 5.95024 60.4798 5.94332 60.4624 5.93584C60.4467 5.9551 60.4306 5.97362 60.4151 5.99307C60.3869 6.02842 60.359 6.06433 60.3313 6.10043C60.2838 6.16216 60.2369 6.22481 60.191 6.28822C60.1643 6.32469 60.1379 6.36154 60.1117 6.39858C60.0638 6.46703 60.0175 6.53643 59.9716 6.60638C59.9503 6.63911 59.9282 6.67128 59.9071 6.70439C59.8416 6.80763 59.7777 6.91219 59.7165 7.01862C59.6755 7.09007 59.6351 7.1632 59.5951 7.23727C59.5826 7.26027 59.5702 7.28403 59.5577 7.30741C59.5304 7.35922 59.5029 7.41122 59.476 7.46396C59.4616 7.49202 59.4474 7.52045 59.4331 7.54869C59.4081 7.59844 59.3834 7.64857 59.3589 7.69945C59.3445 7.729 59.3301 7.75892 59.3157 7.78904C59.2912 7.84047 59.2672 7.89285 59.2431 7.9454C59.2353 7.96261 59.2274 7.97963 59.2197 7.99684L59.4114 7.92446ZM65.2212 3.22883C66.2039 4.30824 66.8707 5.61884 67.1346 6.9977L67.1395 6.99864L67.1402 7.00331C68.523 7.31717 69.779 7.96545 70.8182 8.89991C71.0518 7.25282 70.7598 5.57226 69.9758 4.09258C68.4936 3.2971 66.8333 2.99802 65.2212 3.22883ZM61.2141 5.48884C61.2129 5.48828 61.212 5.48771 61.2109 5.48715C61.131 5.446 61.0506 5.40616 60.9694 5.36801C61.917 4.41316 63.0843 3.73907 64.379 3.3994C65.371 4.36827 66.0642 5.57749 66.3668 6.8634C66.3046 6.85517 66.2419 6.84862 66.1791 6.8417C66.09 6.83179 66.0008 6.82337 65.911 6.81627C65.8461 6.81103 65.7814 6.80617 65.7161 6.80242C65.6598 6.79925 65.6035 6.79644 65.547 6.79438C65.4395 6.79027 65.3318 6.78821 65.2236 6.7884C65.2165 6.7884 65.2094 6.78784 65.2023 6.78784H65.1853C65.034 6.78821 64.8787 6.79214 64.7213 6.79906C64.6704 6.80112 64.6176 6.80542 64.5664 6.80841C64.4581 6.81458 64.35 6.82075 64.2393 6.82992C64.1757 6.83516 64.1102 6.84245 64.0455 6.84881C63.9448 6.85854 63.844 6.86826 63.7415 6.88042C63.6705 6.88884 63.5986 6.89912 63.5268 6.90866C63.4557 6.91802 63.386 6.92587 63.3141 6.93653C63.3065 6.93036 63.2992 6.92475 63.2917 6.91876C63.1827 6.83085 63.0751 6.74575 62.9689 6.66327C62.9517 6.6498 62.9345 6.63633 62.9171 6.62305C62.8108 6.54094 62.7055 6.46108 62.6023 6.38458C62.5875 6.37373 62.5729 6.36307 62.5583 6.35222C62.453 6.27441 62.3488 6.19922 62.2467 6.12758C62.2372 6.12085 62.228 6.11449 62.2185 6.10775C62.1117 6.03313 62.0067 5.9613 61.904 5.89359C61.8045 5.82775 61.703 5.76528 61.6005 5.70449C61.5747 5.68934 61.5492 5.67419 61.5232 5.65923C61.4213 5.60031 61.3184 5.54289 61.2141 5.48884Z" fill="white"/>
<path fill-rule="evenodd" clip-rule="evenodd" d="M57.9534 16.4437C58.0245 16.4513 58.0958 16.4586 58.1674 16.4644C58.1981 16.4671 58.2289 16.4689 58.2598 16.471C58.4592 16.485 58.6602 16.4931 58.8632 16.4944C58.996 16.4942 59.1329 16.4904 59.2713 16.4846C59.2956 16.4835 59.3196 16.4828 59.3441 16.4816C59.4778 16.4751 59.6143 16.4663 59.7531 16.4547C59.7802 16.4525 59.8074 16.45 59.8345 16.4476C59.8781 16.4437 59.9231 16.4381 59.9673 16.4338C59.9351 16.4066 59.9007 16.3775 59.8667 16.3483C59.8534 16.3371 59.8412 16.3268 59.8278 16.3154C59.7731 16.2688 59.7167 16.22 59.6583 16.1693C59.6398 16.153 59.62 16.1356 59.6011 16.119C59.5595 16.0827 59.5178 16.046 59.4748 16.0077C59.4505 15.9862 59.4256 15.9639 59.4007 15.9417C59.3607 15.9059 59.3205 15.8697 59.2794 15.8322C59.2528 15.8083 59.2262 15.7842 59.1993 15.7595C59.1574 15.7213 59.1153 15.6822 59.0725 15.6426C59.0456 15.6175 59.0186 15.5926 58.9913 15.567C58.9449 15.5236 58.898 15.4791 58.8507 15.4342C58.8262 15.411 58.802 15.3882 58.7775 15.3646C58.7055 15.2956 58.6329 15.2253 58.5594 15.1531C58.4405 15.0358 58.3247 14.918 58.2104 14.7998C58.1861 14.7747 58.1616 14.7495 58.1375 14.7244C58.0273 14.6092 57.9186 14.4938 57.813 14.3784C57.7946 14.3584 57.7772 14.3383 57.7589 14.3185C57.7121 14.2667 57.6648 14.2149 57.6188 14.1633C57.6158 14.1861 57.6132 14.2087 57.6104 14.2314C57.6035 14.2869 57.5967 14.3421 57.5906 14.3963C57.5868 14.4283 57.5833 14.4599 57.5799 14.4913C57.5741 14.5448 57.5685 14.5976 57.5633 14.6498C57.5603 14.6797 57.5573 14.7096 57.5545 14.7392C57.5492 14.7945 57.5446 14.849 57.5401 14.9028C57.538 14.9273 57.5359 14.9522 57.5339 14.9765C57.5281 15.0538 57.5225 15.1297 57.5182 15.204C57.5114 15.3164 57.5081 15.4284 57.5068 15.5401C57.5064 15.5762 57.5073 15.6119 57.5075 15.648C57.5079 15.7245 57.5092 15.8008 57.5122 15.8769C57.5137 15.9177 57.5159 15.9583 57.5182 15.9989C57.5223 16.0715 57.5279 16.1439 57.5345 16.2161C57.5378 16.2555 57.5414 16.295 57.5455 16.3343C57.5475 16.3526 57.5505 16.3705 57.5526 16.3889C57.5754 16.3926 57.5977 16.3969 57.6203 16.4005C57.6708 16.4083 57.7219 16.4151 57.7727 16.4218C57.8328 16.4298 57.8932 16.4369 57.9534 16.4437ZM56.7833 15.5208C56.785 15.4013 56.7882 15.2814 56.7955 15.1615C56.7994 15.094 56.8042 15.0254 56.8093 14.9558C56.8112 14.9326 56.8132 14.9089 56.8151 14.8855C56.8188 14.8383 56.8226 14.7912 56.8271 14.7431C56.8295 14.7145 56.8325 14.6852 56.8353 14.6562C56.8394 14.6126 56.8437 14.5688 56.8482 14.5243C56.8514 14.4925 56.8551 14.4603 56.8587 14.428C56.8632 14.3851 56.8678 14.3421 56.8731 14.2985C56.8768 14.2647 56.8811 14.2305 56.8852 14.196C56.8905 14.1534 56.8957 14.1106 56.9011 14.0674C56.906 14.0316 56.9107 13.9955 56.9153 13.9592C56.9213 13.916 56.9271 13.8726 56.9331 13.8289C56.9384 13.792 56.9436 13.755 56.949 13.7176C56.9554 13.6738 56.9617 13.6299 56.9685 13.5855C56.9744 13.547 56.9802 13.5087 56.9862 13.4698C56.9889 13.4529 56.9913 13.4363 56.9939 13.4194C56.9875 13.4114 56.9819 13.4035 56.9756 13.3955C56.886 13.282 56.7992 13.1688 56.715 13.0557C56.7014 13.0373 56.6877 13.019 56.6741 13.0005C56.5905 12.8868 56.5093 12.7736 56.4311 12.6604C56.4199 12.6442 56.4088 12.6279 56.3978 12.6114C56.3187 12.4958 56.2422 12.3806 56.1691 12.266C56.1619 12.2549 56.1554 12.2439 56.1485 12.2329C56.0724 12.1126 55.9992 11.9929 55.93 11.8737C55.8651 11.7621 55.8038 11.6487 55.7443 11.5348C55.7286 11.5049 55.7132 11.475 55.6979 11.4449C55.6459 11.3431 55.5958 11.2408 55.5481 11.1375C55.5417 11.1237 55.5346 11.1099 55.5282 11.096C55.4854 11.0018 55.4439 10.9071 55.4044 10.8117C54.4414 11.7176 53.7405 12.9227 53.3982 14.2664C54.3409 15.2177 55.5082 15.8912 56.8074 16.2335C56.7902 16.0277 56.7827 15.8199 56.7827 15.611C56.7827 15.596 56.7818 15.5813 56.7818 15.5661C56.782 15.5512 56.7831 15.536 56.7833 15.5208ZM55.1373 10.0789L55.1355 10.0736L55.1394 10.0705C54.7204 8.71665 54.654 7.30524 54.9426 5.93816C53.3997 6.56063 52.0901 7.65389 51.2007 9.07128C51.2521 10.7498 51.8237 12.3383 52.8298 13.6207C53.2727 12.2304 54.0744 10.9974 55.1373 10.0789ZM51.2723 7.74084C51.7515 4.36438 54.4361 1.69007 57.8175 1.22583C56.5839 2.24184 55.6665 3.57375 55.1729 5.08205C53.6436 5.59174 52.2971 6.51347 51.2723 7.74084Z" fill="white"/>
<path fill-rule="evenodd" clip-rule="evenodd" d="M68.9146 13.9278L68.9164 13.9331L68.9123 13.9363C69.3315 15.2904 69.3977 16.7022 69.1085 18.0697C70.652 17.4472 71.962 16.3539 72.8512 14.9367C72.7996 13.2571 72.228 11.6688 71.2212 10.3875C70.7783 11.7774 69.977 13.0097 68.9146 13.9278ZM66.4184 7.6033C66.3815 7.59768 66.3445 7.59282 66.3076 7.58777C66.2201 7.5758 66.132 7.56551 66.0433 7.55654C66.0078 7.55298 65.9725 7.54924 65.9367 7.54606C65.8445 7.53802 65.7519 7.53185 65.659 7.52661C65.6262 7.52493 65.5939 7.52249 65.5613 7.521C65.4373 7.51557 65.3128 7.51239 65.1882 7.51221C65.055 7.51239 64.9179 7.51632 64.7793 7.52193C64.7548 7.52306 64.7307 7.5238 64.706 7.52493C64.5723 7.53147 64.4357 7.54045 64.2973 7.55186C64.27 7.5541 64.2427 7.55672 64.2154 7.55915C64.1752 7.56271 64.1338 7.56795 64.0933 7.57187L64.2266 7.68092H64.2128C64.2156 7.68354 64.2188 7.68616 64.2216 7.68859C64.2762 7.73516 64.333 7.78416 64.3918 7.83523C64.4086 7.84982 64.4264 7.86553 64.4436 7.88068C64.4866 7.91827 64.5302 7.95643 64.5751 7.99627C64.5988 8.0174 64.6231 8.0391 64.6475 8.0608C64.6879 8.09708 64.7286 8.13374 64.7703 8.17153C64.7967 8.19528 64.8231 8.21941 64.85 8.24391C64.8921 8.28244 64.9348 8.32191 64.978 8.36193C65.0049 8.38681 65.0315 8.4115 65.0586 8.43675C65.1057 8.48089 65.1534 8.52616 65.2015 8.57179C65.2204 8.58975 65.2387 8.60677 65.2578 8.62491C65.2628 8.62996 65.2683 8.6352 65.2735 8.64006C65.3446 8.70852 65.4168 8.77847 65.4899 8.85011L65.4934 8.85366C65.4951 8.85553 65.497 8.85722 65.4987 8.85909C65.6163 8.97505 65.7306 9.09139 65.8436 9.20811C65.8677 9.23298 65.892 9.25805 65.916 9.28292C66.0267 9.39851 66.1352 9.51429 66.2411 9.63007C66.2594 9.6499 66.2772 9.66991 66.2949 9.68974C66.3413 9.7408 66.3881 9.79167 66.4331 9.84255C66.4359 9.81973 66.4386 9.79747 66.4416 9.77503C66.4483 9.71948 66.455 9.66449 66.4612 9.61024C66.4651 9.5762 66.4687 9.54272 66.4724 9.50906C66.478 9.45837 66.4831 9.40843 66.4881 9.35886C66.4913 9.32632 66.4947 9.29377 66.4975 9.26179C66.5025 9.20979 66.5068 9.15891 66.5111 9.10823C66.5132 9.08092 66.5158 9.05305 66.5179 9.02612C66.5239 8.9498 66.5291 8.87461 66.5336 8.80148C66.5403 8.68926 66.5435 8.57703 66.5446 8.46518C66.545 8.42927 66.5442 8.39354 66.5441 8.35782C66.5439 8.28094 66.5426 8.20445 66.5396 8.12832C66.5379 8.08773 66.5358 8.04733 66.5336 8.00712C66.5293 7.9338 66.5239 7.86085 66.5173 7.78828C66.5136 7.74956 66.5104 7.71084 66.5061 7.67231C66.5042 7.65361 66.5012 7.63547 66.499 7.61695C66.472 7.61265 66.4453 7.60722 66.4184 7.6033ZM67.2712 8.39575C67.2712 8.41071 67.2723 8.42549 67.2721 8.44064C67.2721 8.4556 67.2708 8.47075 67.2706 8.4859C67.2693 8.60542 67.266 8.72532 67.2588 8.8454C67.2587 8.84708 67.2587 8.84895 67.2585 8.85063C67.2545 8.9161 67.2499 8.98268 67.245 9.05058C67.2433 9.07097 67.2414 9.0921 67.2398 9.11268C67.2358 9.16224 67.2317 9.21218 67.2272 9.26306C67.225 9.28868 67.2224 9.31506 67.2199 9.34087C67.2156 9.38763 67.211 9.43457 67.2061 9.48246C67.2031 9.51145 67.1999 9.54119 67.1966 9.57055C67.1919 9.616 67.1868 9.66145 67.1814 9.70765C67.1777 9.73982 67.1737 9.77237 67.1698 9.80473C67.1644 9.84943 67.1592 9.89413 67.1534 9.9394C67.1489 9.974 67.1444 10.009 67.1395 10.044C67.1337 10.0883 67.1277 10.1328 67.1216 10.1777C67.1165 10.214 67.1115 10.2506 67.1062 10.2873C67.0997 10.332 67.0931 10.3771 67.0862 10.4223C67.0806 10.4605 67.075 10.4986 67.069 10.5372C67.0664 10.5546 67.0639 10.5716 67.0611 10.5892C67.0726 10.6034 67.0834 10.618 67.0948 10.6322C67.1197 10.6638 67.1442 10.6954 67.1687 10.727C67.1971 10.7637 67.2254 10.8007 67.2536 10.8374C67.277 10.8684 67.3004 10.8993 67.3234 10.9302C67.3512 10.9676 67.3791 11.005 67.4064 11.0424C67.4285 11.0727 67.4506 11.1028 67.4723 11.1329C67.4998 11.1711 67.5269 11.209 67.5536 11.2472C67.5744 11.2766 67.5951 11.3059 67.6155 11.3355C67.6423 11.374 67.6683 11.4125 67.6945 11.4511C67.7141 11.4799 67.7336 11.5085 67.7528 11.5373C67.7794 11.5773 67.8052 11.6172 67.8312 11.657C67.8484 11.6837 67.8662 11.7105 67.8832 11.7374C67.9114 11.7816 67.9387 11.8257 67.966 11.8698C67.9797 11.8919 67.9941 11.9142 68.0076 11.9362C68.0478 12.0025 68.0871 12.0683 68.1252 12.1339C68.1901 12.2454 68.2513 12.3584 68.3109 12.4721C68.3267 12.502 68.3422 12.5322 68.3575 12.5623C68.409 12.6635 68.4589 12.765 68.5064 12.8675C68.5131 12.8821 68.5202 12.8963 68.527 12.9109C68.57 13.0054 68.6115 13.1004 68.651 13.1958C69.6243 12.286 70.3108 11.1037 70.6563 9.74226C69.7147 8.79078 68.5476 8.11706 67.2469 7.77346C67.2542 7.861 67.2598 7.94891 67.2639 8.037C67.2639 8.03775 67.2641 8.03831 67.2641 8.03888C67.2697 8.15727 67.2714 8.27642 67.2712 8.39575ZM72.7781 16.2666C72.2987 19.6436 69.613 22.3181 66.2311 22.7816C67.4663 21.7654 68.3843 20.4334 68.877 18.9252C70.4064 18.4157 71.7537 17.4939 72.7781 16.2666Z" fill="white"/>
</svg>
