<svg width="24" height="24" viewBox="0 0 24 24" fill="none" xmlns="http://www.w3.org/2000/svg">
<path d="M3.22321 0H3.2204C2.36442 0 1.55718 0.338355 0.947998 0.952399C0.336797 1.56811 3.87556e-07 2.38507 3.87556e-07 3.25288C-0.000421486 4.1398 0.343593 4.97101 0.966795 5.5924C1.5712 6.19424 2.39559 6.53221 3.19481 6.51267C3.21801 6.5131 3.24121 6.51348 3.26479 6.51348C4.06598 6.51348 4.85919 6.18166 5.45 5.59607C6.07278 4.97916 6.4168 4.15119 6.41881 3.26465C6.42083 2.39765 6.08722 1.57945 5.48043 0.960119C4.874 0.341596 4.0724 0.000810147 3.22321 0Z" fill="#F5F3EA"/>
<path d="M4.8004 7.32666H1.5664C0.923608 7.32666 0.400391 7.87522 0.400391 8.54908V22.7798C0.400391 23.4394 0.949999 23.9965 1.60039 23.9965H4.8004C5.45079 23.9965 6.00039 23.4504 6.00039 22.8046V8.54665C6.00039 7.88542 5.45083 7.32666 4.8004 7.32666Z" fill="#F5F3EA"/>
<path d="M18.452 6.91992H17.6092C16.056 6.91992 14.566 7.59253 13.6 8.70353V8.13991C13.6 7.73688 13.196 7.32657 12.8 7.32657H8.80001C8.43003 7.32657 8 7.66001 8 8.08987V23.2636C8 23.6951 8.42159 23.996 8.80001 23.9964L13.2 23.9977C13.5784 23.9977 14 23.6967 14 23.2649V14.4985C14 13.176 14.9644 12.1288 16.1956 12.1146C16.8216 12.1004 17.4132 12.3513 17.856 12.8023C18.222 13.1744 18.4 13.7177 18.4 14.4635V23.1864C18.4 23.5895 18.804 23.9998 19.2 23.9998H23.2C23.596 23.9998 24 23.5895 24 23.1864V12.6905C24 9.45463 21.5628 6.91992 18.452 6.91992Z" fill="#F5F3EA"/>
</svg>
