<svg width="50" height="50" viewBox="0 0 50 50" fill="none" xmlns="http://www.w3.org/2000/svg">
<path d="M46.6667 41.6666H3.33333C1.49306 41.6666 0 40.1735 0 38.3333V11.6666C0 9.82631 1.49306 8.33325 3.33333 8.33325H46.6667C48.5069 8.33325 50 9.82631 50 11.6666V38.3333C50 40.1735 48.5069 41.6666 46.6667 41.6666ZM39.5611 35.7208C39.5556 35.7208 39.5486 35.7208 39.5417 35.7208C39.1417 35.7208 38.7819 35.8916 38.5306 36.1638L38.5292 36.1652C38.2667 36.4541 38.1056 36.8388 38.1056 37.261C38.1056 37.6833 38.2667 38.0694 38.5306 38.3583L38.5292 38.3569C38.7819 38.6305 39.1417 38.8013 39.5417 38.8013H39.5611H39.5597C39.5806 38.8027 39.6069 38.8041 39.6319 38.8041C39.9847 38.8041 40.2972 38.6333 40.4917 38.3708L40.4931 38.368V38.7374H41.1222V34.6138H40.4931V36.1555C40.2903 35.8902 39.9736 35.7194 39.6167 35.7194C39.5972 35.7194 39.5778 35.7194 39.5583 35.7208H39.5611ZM33.6583 35.7208C33.6486 35.7208 33.6375 35.7208 33.6264 35.7208C33.225 35.7208 32.8625 35.8874 32.6056 36.1555C32.3431 36.4485 32.1819 36.836 32.1819 37.2624C32.1819 37.6888 32.3431 38.0777 32.6069 38.3708L32.6056 38.3694C32.8639 38.6374 33.2264 38.8041 33.6278 38.8041H33.6611H33.6597C33.6792 38.8055 33.7 38.8055 33.7222 38.8055C34.0708 38.8055 34.3792 38.6346 34.5681 38.3721L34.5708 38.3694V38.7388H35.2236V35.8083H34.5722V36.1555C34.3736 35.8902 34.0597 35.7194 33.7069 35.7194C33.6903 35.7194 33.6736 35.7194 33.6583 35.7208H33.6611H33.6583ZM30.8139 35.7208C30.7958 35.7194 30.7764 35.7194 30.7556 35.7194C29.9042 35.7194 29.2139 36.4096 29.2139 37.261C29.2139 38.1124 29.9042 38.8027 30.7556 38.8027C30.7764 38.8027 30.7972 38.8027 30.8167 38.8013H30.8139C30.8306 38.8013 30.85 38.8027 30.8708 38.8027C31.2458 38.8027 31.5889 38.6721 31.8597 38.4527L31.8569 38.4555L31.5528 37.9346C31.3597 38.0874 31.1153 38.1846 30.85 38.1958H30.8472C30.8306 38.1971 30.8097 38.1971 30.7903 38.1971C30.5417 38.1971 30.3167 38.0971 30.1528 37.9346C29.9986 37.7555 29.9042 37.5194 29.9042 37.2624C29.9042 37.0055 29.9986 36.7694 30.1542 36.5888L30.1528 36.5902C30.3083 36.4291 30.525 36.3291 30.7653 36.3291H30.7944H30.7931C31.0806 36.3305 31.3444 36.4277 31.5556 36.5916L31.5528 36.5888L31.8569 36.068C31.5819 35.8499 31.2306 35.7194 30.8486 35.7194C30.8375 35.7194 30.825 35.7194 30.8139 35.7194H30.8153L30.8139 35.7208ZM25.1472 35.7208C25.1361 35.7208 25.125 35.7208 25.1125 35.7208C24.7153 35.7208 24.3583 35.8874 24.1056 36.1555C23.85 36.4319 23.6917 36.8027 23.6917 37.211C23.6917 37.2305 23.6917 37.2499 23.6931 37.2694V37.2666C23.6917 37.286 23.6917 37.3083 23.6917 37.3305C23.6917 37.7402 23.8542 38.1124 24.1167 38.3846C24.3806 38.6471 24.7444 38.8083 25.1458 38.8083C25.1611 38.8083 25.1778 38.8083 25.1931 38.8069H25.1903C25.2069 38.8069 25.2278 38.8083 25.2472 38.8083C25.6819 38.8083 26.0792 38.6513 26.3875 38.3916L26.3847 38.3944L26.0806 37.918C25.8556 38.1166 25.5597 38.2402 25.2361 38.243H25.2347C25.2125 38.2444 25.1875 38.2458 25.1625 38.2458C24.7444 38.2458 24.3986 37.9333 24.3458 37.5305V37.5263H26.5375V37.2666C26.5389 37.2444 26.5389 37.2194 26.5389 37.1944C26.5389 36.793 26.3903 36.4263 26.1444 36.1471L26.1458 36.1485C25.9069 35.8846 25.5625 35.7194 25.1792 35.7194C25.1694 35.7194 25.1583 35.7194 25.1486 35.7194H25.15L25.1472 35.7208ZM20.8736 35.8083V36.3944H21.4806V37.7194C21.4806 38.4388 21.8236 38.8041 22.5 38.8041H22.5236C22.8042 38.8041 23.0639 38.7208 23.2819 38.5791L23.2764 38.5819L23.1014 38.0388C22.9389 38.1319 22.7444 38.1874 22.5375 38.1916H22.5361C22.2611 38.1916 22.1222 38.0319 22.1222 37.7152V36.3958H23.1639V35.8096H22.1222V34.9208H21.4708V35.8096L20.8736 35.8083ZM18.1417 37.9333L17.8597 38.4333C18.2028 38.6652 18.625 38.8027 19.0792 38.8027H19.1208H19.1181C19.1458 38.8041 19.1778 38.8055 19.2097 38.8055C19.5417 38.8055 19.8514 38.7069 20.1111 38.5374L20.1042 38.5416C20.3208 38.393 20.4625 38.1458 20.4625 37.8652C20.4625 37.8583 20.4625 37.8527 20.4625 37.8458V37.8471C20.4625 37.3583 20.1194 37.0694 19.4431 36.9791L19.1403 36.9346C18.8069 36.8777 18.6403 36.7763 18.6403 36.6319C18.6403 36.4152 18.8222 36.3069 19.1833 36.3069H19.1903C19.5306 36.3069 19.85 36.3958 20.1264 36.5513L20.1167 36.5458L20.3778 36.0249C20.0583 35.8333 19.6722 35.7194 19.2597 35.7194C19.2333 35.7194 19.2056 35.7194 19.1792 35.7208H19.1833C19.1611 35.7194 19.1347 35.7194 19.1083 35.7194C18.8028 35.7194 18.5194 35.818 18.2903 35.9846L18.2944 35.9819C18.0958 36.1374 17.9694 36.3777 17.9694 36.6485V36.6777V36.6763C17.9694 37.1513 18.3125 37.436 18.9889 37.5221L19.2708 37.5666C19.6167 37.6249 19.7917 37.7263 19.7917 37.8708C19.7917 38.1152 19.5694 38.2402 19.1181 38.2402C19.1139 38.2402 19.1097 38.2402 19.1056 38.2402C18.7444 38.2402 18.4097 38.1263 18.1361 37.9319L18.1417 37.936V37.9333ZM15.6667 35.7194C15.6569 35.7194 15.6444 35.7194 15.6319 35.7194C15.2361 35.7194 14.8778 35.886 14.6264 36.1541C14.3694 36.4485 14.2125 36.8374 14.2125 37.261C14.2125 37.6846 14.3694 38.0735 14.6278 38.3708L14.6264 38.3694C14.8792 38.6374 15.2361 38.8041 15.6333 38.8041H15.6694H15.6681C15.6847 38.8055 15.7042 38.8055 15.725 38.8055C16.0819 38.8055 16.4 38.636 16.6014 38.3721L16.6028 38.3694V38.7388H17.2319V35.8083H16.6028V36.1555C16.3847 35.8888 16.0569 35.7208 15.6889 35.7208C15.6819 35.7208 15.675 35.7208 15.6667 35.7208H15.6681L15.6667 35.7194ZM36.0667 35.8069V38.7374H36.6958V37.0888C36.6958 36.586 36.9069 36.3305 37.325 36.3305H37.3389C37.4764 36.3305 37.6069 36.3624 37.7222 36.4194L37.7167 36.4166L37.9111 35.8083C37.7889 35.7527 37.6472 35.7208 37.4972 35.7208C37.4819 35.7208 37.4681 35.7208 37.4528 35.7221H37.4556C37.4486 35.7221 37.4403 35.7221 37.4319 35.7221C37.1167 35.7221 36.8417 35.8958 36.6986 36.1527L36.6958 36.1569V35.8096L36.0667 35.8069ZM27.1917 35.8069V38.7374H27.8431V37.0888C27.8431 36.586 28.0542 36.3305 28.4722 36.3305H28.4861C28.6236 36.3305 28.7542 36.3624 28.8694 36.4194L28.8639 36.4166L29.0597 35.8083C28.9319 35.7527 28.7847 35.7208 28.6292 35.7208C28.6208 35.7208 28.6125 35.7208 28.6028 35.7208H28.6042C28.5972 35.7208 28.5875 35.7208 28.5792 35.7208C28.2639 35.7208 27.9903 35.8944 27.8472 36.1513L27.8444 36.1555V35.8083L27.1917 35.8069ZM12.3472 36.3277C12.7792 36.3277 12.9986 36.5902 12.9986 37.1055V38.7333H13.65V36.8888C13.65 36.8749 13.6514 36.8596 13.6514 36.843C13.6514 36.5374 13.5306 36.261 13.3347 36.0569C13.1139 35.8499 12.8153 35.7235 12.4889 35.7235C12.4847 35.7235 12.4806 35.7235 12.4764 35.7235C12.4556 35.7221 12.4306 35.7208 12.4056 35.7208C12.0083 35.7208 11.6583 35.9277 11.4597 36.2402L11.4569 36.2444C11.2722 35.9291 10.9361 35.7208 10.55 35.7208C10.5264 35.7208 10.5014 35.7221 10.4778 35.7235H10.4806C10.4764 35.7235 10.4722 35.7235 10.4681 35.7235C10.125 35.7235 9.82083 35.8944 9.63611 36.1555L9.63333 36.1583V35.811H8.98472V38.7416H9.63611V37.111C9.63611 36.593 9.87778 36.3333 10.3528 36.3333C10.7847 36.3333 11.0042 36.5958 11.0042 37.111V38.7388H11.6333V37.111C11.6333 36.5916 11.875 36.3333 12.3486 36.3333L12.3472 36.3277ZM31.8139 11.111C31.8 11.111 31.7847 11.111 31.7681 11.111C29.5111 11.111 27.4153 11.7999 25.6778 12.9805L25.7153 12.9569C27.5153 14.4235 28.8611 16.386 29.5458 18.636L29.5681 18.7194C29.8958 19.7541 30.0833 20.943 30.0833 22.1777C30.0833 23.3985 29.8986 24.5749 29.5569 25.6833L29.5792 25.5999C28.8792 27.9305 27.5278 29.8874 25.7375 31.3194L25.7153 31.3374C27.4264 32.493 29.5361 33.1819 31.8056 33.1819C33.3611 33.1819 34.8403 32.8583 36.1806 32.2749L36.1097 32.3027C38.7736 31.1735 40.8514 29.0958 41.9528 26.5041L41.9792 26.4333C42.5347 25.1694 42.8583 23.6958 42.8583 22.1471C42.8583 20.5985 42.5347 19.1249 41.9514 17.7916L41.9792 17.861C40.85 15.1958 38.7667 13.118 36.1694 12.0208L36.0986 11.9944C34.8389 11.4388 33.3708 11.1152 31.8278 11.1152C31.8222 11.1152 31.8181 11.1152 31.8125 11.1152H31.8139V11.111ZM18.1861 11.111C18.1819 11.111 18.1764 11.111 18.1708 11.111C16.6278 11.111 15.1583 11.4346 13.8306 12.0166L13.9 11.9888C11.2292 13.1124 9.14722 15.1916 8.04444 17.7874L8.01805 17.8583C7.4625 19.1221 7.13889 20.5958 7.13889 22.1444C7.13889 23.693 7.4625 25.1666 8.04583 26.4999L8.01805 26.4305C9.14722 29.0944 11.225 31.1721 13.8167 32.2735L13.8875 32.2999C15.1569 32.8555 16.6375 33.1791 18.1917 33.1791C20.4625 33.1791 22.5708 32.4902 24.3208 31.3096L24.2819 31.3346C22.4722 29.8749 21.1208 27.9096 20.4403 25.6555L20.4194 25.5735C20.1014 24.5513 19.9181 23.3763 19.9181 22.1583C19.9181 18.4569 21.6097 15.1499 24.2625 12.9694L24.2833 12.9527C22.5847 11.7971 20.4889 11.1083 18.2319 11.1083C18.2153 11.1083 18.1986 11.1083 18.1819 11.1083H18.1847L18.1861 11.111ZM25 13.4763C23.2542 14.8333 21.95 16.6805 21.2875 18.8124L21.2667 18.8888C20.95 19.868 20.7667 20.9958 20.7667 22.1652C20.7667 23.3235 20.9458 24.4388 21.2778 25.4874L21.2569 25.4096C21.9361 27.6194 23.2458 29.4666 24.975 30.7971L25 30.8152C26.7542 29.4666 28.0639 27.6194 28.7236 25.486L28.7444 25.411C29.0556 24.4402 29.2347 23.3235 29.2347 22.1652C29.2347 20.9944 29.0514 19.868 28.7139 18.8096L28.7347 18.8874C28.0514 16.6791 26.7472 14.8319 25.0264 13.493L25.0014 13.4749L25 13.4763ZM39.6472 38.1944C39.6403 38.1944 39.6319 38.1944 39.6236 38.1944C39.3806 38.1944 39.1611 38.0902 39.0083 37.9235C38.8528 37.7485 38.7583 37.5152 38.7583 37.261C38.7583 37.0069 38.8528 36.7749 39.0097 36.5971L39.0083 36.5985C39.1708 36.4305 39.3972 36.3263 39.6486 36.3263C39.9 36.3263 40.1278 36.4305 40.2889 36.5985C40.4431 36.7763 40.5375 37.0096 40.5375 37.2652C40.5375 37.5208 40.4431 37.7541 40.2875 37.9333L40.2889 37.9319C40.1333 38.0944 39.9139 38.1944 39.6722 38.1944C39.6639 38.1944 39.6556 38.1944 39.6472 38.1944H39.6486H39.6472ZM33.7236 38.1944C33.7139 38.1944 33.7042 38.1944 33.6931 38.1944C33.4569 38.1944 33.2444 38.0944 33.0944 37.9346C32.9458 37.7527 32.8556 37.518 32.8556 37.2624C32.8556 37.0069 32.9458 36.7721 33.0958 36.5874L33.0944 36.5888C33.2444 36.4277 33.4569 36.3277 33.6931 36.3277H33.725H33.7236H33.7486C33.9917 36.3277 34.2111 36.4319 34.3625 36.5985C34.5181 36.7666 34.6125 36.9916 34.6125 37.2388V37.2666V37.2652C34.6125 37.2763 34.6139 37.2902 34.6139 37.3027C34.6139 37.5471 34.5236 37.7694 34.3736 37.9402L34.375 37.9388C34.2208 38.0971 34.0069 38.1944 33.7694 38.1944C33.7542 38.1944 33.7375 38.1944 33.7222 38.193H33.725L33.7236 38.1944ZM15.7542 38.1944C15.7417 38.1944 15.7278 38.1958 15.7139 38.1958C15.4736 38.1958 15.2569 38.0958 15.1042 37.9346C14.9556 37.7527 14.8653 37.518 14.8653 37.2624C14.8653 37.0069 14.9556 36.7721 15.1056 36.5874L15.1042 36.5888C15.2583 36.4277 15.475 36.3277 15.7153 36.3277C15.7292 36.3277 15.7444 36.3277 15.7583 36.3291H15.7569H15.7889C16.0264 36.3291 16.2403 36.4333 16.3861 36.5999L16.3875 36.6013C16.5347 36.7819 16.625 37.0138 16.625 37.268C16.625 37.5221 16.5347 37.7541 16.3861 37.936L16.3875 37.9346C16.2375 38.0958 16.0236 38.1958 15.7861 38.1958C15.7764 38.1958 15.7653 38.1958 15.7556 38.1958H15.7569L15.7542 38.1944ZM25.8889 36.9999H24.3708C24.4056 36.6083 24.7319 36.3027 25.1306 36.3027C25.5292 36.3027 25.8556 36.6083 25.8903 36.9971V36.9999H25.8889Z" fill="#F5F3EA"/>
</svg>
