<svg width="12" height="14" viewBox="0 0 12 14" fill="none" xmlns="http://www.w3.org/2000/svg">
<path d="M8.05704 0.333496H2.70181C1.91946 0.333496 1.28271 0.970686 1.28271 1.75259V7.00017H1.14411C0.828347 7.00017 0.572266 7.256 0.572266 7.57203V11.04C0.572266 11.356 0.82832 11.6118 1.14411 11.6118H1.28271V12.2478C1.28271 13.0305 1.91946 13.6669 2.70181 13.6669H10.0088C10.7906 13.6669 11.4275 13.0305 11.4275 12.2478V3.69212L8.05704 0.333496ZM2.07244 8.19789C2.24003 8.16957 2.47559 8.14822 2.80748 8.14822C3.14287 8.14822 3.38192 8.21224 3.54254 8.34083C3.69596 8.46202 3.7995 8.66204 3.7995 8.89744C3.7995 9.13278 3.72105 9.33286 3.57829 9.4684C3.39262 9.64317 3.11804 9.72163 2.79683 9.72163C2.72534 9.72163 2.66127 9.71809 2.61116 9.71115V10.5711H2.07244V8.19789ZM10.0088 12.7978H2.70181C2.39888 12.7978 2.1522 12.5511 2.1522 12.2478V11.6118H8.96381C9.27962 11.6118 9.53568 11.356 9.53568 11.04V7.57203C9.53568 7.256 9.27962 7.00017 8.96381 7.00017H2.1522V1.75259C2.1522 1.45011 2.39891 1.20343 2.70181 1.20343L7.7319 1.19817V3.05748C7.7319 3.60056 8.17255 4.04162 8.71605 4.04162L10.5374 4.03639L10.5579 12.2477C10.5579 12.5511 10.3117 12.7978 10.0088 12.7978ZM4.14687 10.5602V8.19789C4.34668 8.16608 4.6071 8.14822 4.88193 8.14822C5.33867 8.14822 5.63486 8.23016 5.86693 8.40491C6.11668 8.59058 6.27357 8.88654 6.27357 9.31145C6.27357 9.77171 6.10598 10.0895 5.87387 10.2856C5.62064 10.4961 5.23516 10.5959 4.76423 10.5959C4.48221 10.5959 4.28241 10.578 4.14687 10.5602ZM8.04139 9.16157V9.60393H7.17773V10.5711H6.63183V8.16608H8.10195V8.61193H7.17773V9.16157H8.04139Z" fill="black"/>
</svg>
