<svg width="34" height="34" viewBox="0 0 34 34" fill="none" xmlns="http://www.w3.org/2000/svg">
<path fill-rule="evenodd" clip-rule="evenodd" d="M8.72263 7.00016C9.21261 3.35881 12.8516 0.333496 17 0.333496C21.1484 0.333496 24.7873 3.35881 25.2773 7.00016H30.0783C31.9192 7.00016 33.4116 8.49255 33.4116 10.3335C33.4116 10.4912 33.4004 10.6488 33.3781 10.8049L30.521 30.8049C30.2864 32.4471 28.88 33.6668 27.2211 33.6668H6.77879C5.11996 33.6668 3.71355 32.4471 3.47896 30.8049L0.621817 10.8049C0.361467 8.98245 1.6278 7.29401 3.45024 7.03366C3.60639 7.01136 3.76392 7.00016 3.92165 7.00016H8.72263ZM21.8798 7.00016C21.3731 5.23029 19.33 3.66683 17 3.66683C14.6699 3.66683 12.6268 5.23029 12.1202 7.00016H21.8798ZM3.92165 10.3335H8.66663V13.6668H12V10.3335H22V13.6668H25.3333V10.3335H30.0783L27.2211 30.3335H6.77879L3.92165 10.3335Z" fill="black"/>
</svg>
