<svg width="80" height="80" viewBox="0 0 80 80" fill="none" xmlns="http://www.w3.org/2000/svg">
<path fill-rule="evenodd" clip-rule="evenodd" d="M37.8793 0.0126922C34.7117 0.250457 32.6637 0.559957 30.2545 1.1649C28.1479 1.69381 25.6187 2.55701 23.9581 3.31376C23.684 3.43864 23.4424 3.54088 23.4212 3.54088C23.4 3.54088 22.9944 3.73384 22.5199 3.9697C18.2027 6.11539 15.0103 8.4055 11.665 11.7565C7.22219 16.2069 4.13263 21.161 2.07449 27.1347C1.10678 29.9436 0.489722 32.8479 0.0998245 36.4292C-0.0319418 37.6395 -0.0336889 42.2021 0.0971243 43.4994C0.883115 51.2938 3.47206 58.0467 7.96982 64.0339C9.20472 65.6778 10.1223 66.7203 11.8173 68.4051C15.3978 71.964 19.2101 74.5854 23.7601 76.6172C27.5082 78.2909 31.5597 79.3617 36.0128 79.8555C37.7591 80.0491 42.2281 80.0479 43.9554 79.8533C49.2602 79.2558 53.3852 78.0542 57.9386 75.7802C60.4276 74.5373 62.32 73.3416 64.5481 71.6037C66.1936 70.3204 67.0504 69.5534 68.5798 67.9947C70.7891 65.7433 72.5217 63.5352 74.0871 60.9763C74.4212 60.4302 74.7302 59.9297 74.7737 59.8642C74.8171 59.7986 75.255 58.9407 75.747 57.9576C77.1898 55.0741 78.0685 52.7198 78.8158 49.7355C79.5504 46.8017 79.8989 44.2089 79.985 41.0368C80.2505 31.2576 76.991 21.8827 70.6953 14.3181C69.7441 13.1753 67.2144 10.6153 66.0355 9.60266C62.2404 6.34259 57.5154 3.64789 52.851 2.08331C50.6098 1.33164 48.3368 0.776273 46.1395 0.443736C44.0753 0.131217 42.9016 0.0399404 40.5798 0.0113418C39.313 -0.00430796 38.0978 -0.00367257 37.8793 0.0126922ZM41.2898 3.03008C43.4922 3.41537 45.6678 4.74996 47.6241 6.91567C50.5182 10.1197 53.0475 15.2325 54.679 21.1767C54.817 21.6791 54.947 22.1528 54.968 22.2292C54.9889 22.3057 54.9845 22.3683 54.958 22.3683C54.9316 22.3683 54.2233 22.2443 53.3841 22.0926C49.064 21.3123 45.1364 20.9855 40.0238 20.9811C35.6351 20.9773 32.7857 21.164 29.0234 21.7016C28.1743 21.823 25.7104 22.2343 25.2175 22.3369C24.9782 22.3868 24.9525 22.3767 25.0006 22.2515C25.0305 22.1734 25.0947 21.9443 25.1431 21.7424C25.2442 21.3214 25.8799 19.149 26.0409 18.6743C27.9233 13.1282 30.1787 9.07891 32.9215 6.3213C34.3479 4.88732 35.9042 3.8646 37.4425 3.35038C38.7815 2.9029 39.9883 2.8024 41.2898 3.03008ZM33.3926 3.28683C33.2839 3.36103 32.8268 3.73861 32.3768 4.12588C29.1797 6.87754 26.366 11.6046 24.2845 17.721C23.9514 18.7 23.4532 20.4041 23.1022 21.7648C22.8546 22.725 22.7601 22.9201 22.5412 22.9232C22.3741 22.9255 19.2144 23.81 18.2216 24.1324C12.5659 25.9691 7.80184 28.6194 4.91529 31.5347C4.29268 32.1636 3.42663 33.153 3.23251 33.4572C3.07096 33.7103 3.18549 33.0609 3.61327 31.297C5.23736 24.6001 8.43096 18.8307 13.256 13.8768C15.5501 11.5214 18.019 9.57272 20.8824 7.85728C24.4124 5.74249 28.2881 4.23074 32.4387 3.34951C33.5391 3.11588 33.6544 3.10833 33.3926 3.28683ZM48.0457 3.47336C51.0332 4.14217 53.5112 5.0037 56.2265 6.31764C60.4743 8.37317 64.1546 11.0989 67.4422 14.6243C71.5692 19.05 74.7112 24.7861 76.2039 30.6202C76.4795 31.6974 76.843 33.4314 76.8018 33.4725C76.7862 33.4881 76.5667 33.2392 76.3142 32.9195C75.6329 32.0567 74.2188 30.6848 73.1837 29.8821C70.9212 28.1276 68.386 26.7091 65.0682 25.3414C63.206 24.5737 60.6288 23.7348 58.3757 23.163L57.1796 22.8594L57.0808 22.5542C57.0264 22.3865 56.8183 21.6235 56.6183 20.8589C55.325 15.9156 53.0757 10.8466 50.7599 7.65685C49.6455 6.12174 48.1701 4.53142 47.0204 3.62636C46.2918 3.0528 46.2171 3.06392 48.0457 3.47336ZM45.663 23.116C47.7902 23.2764 49.537 23.474 51.6993 23.799C52.6197 23.9373 53.1873 24.0372 54.8763 24.3579C55.1384 24.4077 55.393 24.4815 55.4421 24.5219C55.4911 24.5623 55.6103 25.0148 55.7068 25.5274C55.8033 26.04 55.9326 26.7276 55.9942 27.0553C56.2935 28.6467 56.6619 31.6844 56.8756 34.3241C57.0457 36.4246 57.0717 43.1535 56.9175 45.1677C56.6404 48.7853 56.2407 51.8339 55.6783 54.6182L55.4944 55.5288L54.3911 55.7464C51.9271 56.2323 48.7323 56.6558 45.7027 56.8981C43.5595 57.0695 36.864 57.0948 34.7818 56.9393C33.1584 56.8181 30.9261 56.5837 29.3014 56.3638C27.541 56.1255 24.6296 55.5824 24.5202 55.4719C24.3518 55.3019 23.7809 52.0091 23.4705 49.4178C23.0318 45.7554 22.9494 44.2174 22.9556 39.8055C22.9613 35.7418 23.0363 34.3368 23.4279 30.9601C23.7419 28.2527 24.3453 24.7246 24.5257 24.5412C24.6354 24.4298 27.2121 23.9454 29.1029 23.6807C30.9325 23.4246 33.2507 23.191 35.02 23.0843C35.8063 23.0368 36.6463 22.9856 36.8865 22.9704C37.961 22.9023 44.2014 23.0059 45.663 23.116ZM22.3498 25.0891C22.3487 25.1438 22.3138 25.3362 22.2721 25.5168C21.8465 27.3601 21.3481 31.3116 21.066 35.0787C20.9377 36.7922 20.9369 43.1199 21.0648 44.8896C21.335 48.6292 21.7979 52.3124 22.276 54.5273C22.3262 54.7596 22.3498 54.9672 22.3285 54.9885C22.3072 55.0098 22.1161 54.9739 21.9038 54.9087C21.6915 54.8434 20.928 54.6232 20.2072 54.4194C17.818 53.7438 14.9669 52.6381 12.7505 51.5275C7.34697 48.8201 3.91247 45.3385 3.09336 41.7379C2.59346 39.5405 3.10336 37.156 4.51745 35.0787C7.24618 31.0704 12.8683 27.7171 20.6441 25.4599C22.4467 24.9366 22.3524 24.9571 22.3498 25.0891ZM59.0858 25.3927C61.7621 26.1256 64.9203 27.3238 67.1872 28.4661C72.2738 31.0294 75.5365 34.1452 76.6706 37.5222C77.2784 39.3321 77.1716 41.3996 76.3749 43.2481C75.051 46.3194 71.8356 49.2235 67.1872 51.5462C65.5421 52.3683 63.6842 53.1398 61.826 53.7724C60.5255 54.2153 57.6888 55.0376 57.6378 54.9866C57.6175 54.9664 57.642 54.7596 57.6922 54.5273C57.8138 53.9644 58.0448 52.6019 58.2419 51.2846C59.0711 45.7454 59.2603 39.1996 58.7623 33.2913C58.585 31.1888 58.2141 28.3229 57.896 26.5978C57.7422 25.7642 57.6165 25.059 57.6165 25.0306C57.6165 25.0023 57.6791 24.9988 57.7555 25.0228C57.8319 25.0468 58.4306 25.2133 59.0858 25.3927ZM50.7283 32.8521C49.957 33.0354 49.4357 33.7892 49.4357 34.7213C49.4357 35.8708 50.1127 36.5815 51.2751 36.6524C52.5226 36.7285 53.2293 36.1092 53.3103 34.8689C53.3378 34.4479 53.3113 34.2074 53.2076 33.9358C53.0368 33.4885 52.5024 32.9768 52.0849 32.8608C51.7397 32.765 51.1119 32.761 50.7283 32.8521ZM51.9601 33.6139C52.256 33.8212 52.3744 34.1515 52.3744 34.7694C52.3744 35.2592 52.3454 35.3797 52.1738 35.6049C51.7641 36.1421 50.9455 36.121 50.5704 35.5635C50.4248 35.3471 50.3888 35.1848 50.3888 34.7453C50.3888 33.8509 50.6742 33.4899 51.3816 33.4899C51.6169 33.4899 51.8563 33.5413 51.9601 33.6139ZM28.8249 36.3239C27.7441 36.4585 26.5249 36.9412 26.3937 37.2862C26.1786 37.8522 26.8952 38.7607 27.4542 38.6306C27.5528 38.6076 27.8837 38.4969 28.1895 38.3846C29.2598 37.9913 30.357 38.1629 30.6443 38.7684C30.8674 39.2386 30.7825 39.8916 30.4505 40.2593C30.2255 40.5085 29.7082 40.6594 28.8677 40.7209C28.1034 40.7769 28.0222 40.7988 27.855 40.9932C27.7178 41.1526 27.6732 41.3024 27.6732 41.6026C27.6732 42.3494 27.8433 42.4673 29.0349 42.5469C30.4872 42.644 30.9672 43.0206 30.9114 44.0192C30.8781 44.6143 30.6765 44.9237 30.1547 45.1807C29.6093 45.4494 28.4836 45.4816 27.585 45.2544C26.7416 45.0411 26.5514 45.0453 26.2949 45.283C26.1127 45.4519 26.0847 45.5411 26.0847 45.9538C26.0847 46.3343 26.1206 46.4707 26.2634 46.6331C26.6831 47.1105 29.0246 47.3887 30.3762 47.1217C31.6241 46.8752 32.5292 46.2832 32.9567 45.434C33.1753 44.9999 33.1909 44.9082 33.192 44.0495C33.1932 43.1638 33.1844 43.1155 32.9527 42.7387C32.675 42.2873 32.1478 41.9026 31.5464 41.7127C31.3164 41.64 31.0746 41.562 31.0091 41.5395C30.9345 41.5137 31.0468 41.4282 31.3091 41.3109C32.1815 40.9205 32.7026 40.2954 32.9142 39.3856C33.0947 38.6096 32.82 37.6814 32.26 37.1755C31.5324 36.518 30.1055 36.1642 28.8249 36.3239ZM45.3365 36.3886C43.3534 36.8201 42.5178 38.6139 42.6243 42.2108C42.6688 43.7149 42.8019 44.4276 43.2011 45.299C43.7891 46.5828 44.8019 47.2312 46.219 47.2312C48.2161 47.2312 49.3447 46.0567 49.7162 43.5916C49.9346 42.1428 49.8275 40.0891 49.4711 38.8919C48.8823 36.9133 47.3074 35.9597 45.3365 36.3886ZM38.1176 36.4689C35.9766 36.9473 34.9215 38.1459 34.4565 40.6282C34.2807 41.5667 34.2844 43.3502 34.4637 44.135C34.8904 46.0016 36.0862 47.1042 37.7999 47.2112C39.9094 47.3428 41.3234 46.2095 41.5857 44.1771C41.8126 42.419 41.1981 41.0002 39.964 40.433C39.5215 40.2296 39.3819 40.2051 38.6736 40.2066C37.7148 40.2085 37.3327 40.3611 36.7641 40.969C36.5605 41.1868 36.3772 41.3482 36.3567 41.3277C36.2831 41.2541 36.5527 39.9513 36.7155 39.5938C36.807 39.3929 37.0626 39.066 37.2836 38.8673C37.8389 38.3679 38.4685 38.1671 39.5996 38.1285C40.0774 38.1123 40.5332 38.0642 40.6124 38.0218C41.0077 37.8102 41.0398 36.8557 40.6626 36.5312C40.468 36.3637 40.3805 36.3503 39.523 36.3561C39.0121 36.3596 38.3797 36.4103 38.1176 36.4689ZM46.7722 38.3271C47.0709 38.4965 47.249 38.8026 47.4258 39.4505C47.6075 40.1162 47.6315 43.1793 47.4611 43.9468C47.2439 44.9248 46.7518 45.4523 46.1208 45.3832C45.1422 45.276 44.8085 44.3626 44.8089 41.7915C44.8093 39.3171 45.1082 38.3748 45.9557 38.1769C46.2588 38.1061 46.4418 38.1398 46.7722 38.3271ZM38.871 42.1346C38.9809 42.2158 39.1594 42.4399 39.2676 42.6327C39.431 42.9234 39.4639 43.0864 39.4604 43.59C39.4548 44.4341 39.2827 44.8529 38.8139 45.1635C37.8378 45.8101 36.7316 45.1172 36.5288 43.7321C36.4988 43.5272 36.5151 43.2226 36.5661 43.0329C36.6778 42.618 37.1721 42.1168 37.5834 42.0014C37.9854 41.8885 38.628 41.955 38.871 42.1346ZM4.44859 48.0034C6.22223 49.9521 9.03221 51.9215 12.3044 53.509C15.0636 54.8477 18.5 56.0834 21.5972 56.8508C22.7593 57.1386 22.9077 57.1991 22.9077 57.3845C22.9077 57.6535 23.6911 60.4611 24.1666 61.8967C25.4784 65.8562 26.8395 68.7743 28.6657 71.5419C29.9231 73.4475 31.5045 75.2346 32.9404 76.3725C33.2817 76.643 33.5386 76.8644 33.5111 76.8644C33.3409 76.8644 31.3367 76.4146 30.334 76.1513C24.876 74.7183 19.5546 71.858 15.2432 68.0399C9.23244 62.7168 5.06127 55.6039 3.41431 47.8687C3.06699 46.2373 3.06063 46.3336 3.48008 46.8715C3.68277 47.1315 4.11858 47.6407 4.44859 48.0034ZM76.7976 46.7764C75.4789 53.2693 72.987 58.6654 69.0823 63.4838C65.1911 68.2856 60.273 72.0078 54.6015 74.4436C52.4343 75.3744 49.5543 76.2666 47.293 76.7079C46.879 76.7887 46.5294 76.8439 46.5163 76.8307C46.503 76.8176 46.7524 76.5987 47.0704 76.3445C47.8575 75.7152 49.2261 74.3235 49.9361 73.4304C52.1737 70.6152 54.0629 66.9974 55.5474 62.6843C55.9685 61.4609 56.8119 58.5876 56.9854 57.7853C57.0391 57.5376 57.1085 57.2936 57.1397 57.2431C57.1709 57.1926 57.693 57.0263 58.3 56.8736C64.3475 55.3525 69.7855 52.8676 73.3592 49.9924C74.4703 49.0986 75.7083 47.8682 76.5154 46.8558C76.6634 46.6701 76.7992 46.5182 76.8173 46.5182C76.8352 46.5182 76.8264 46.6343 76.7976 46.7764ZM26.0888 57.8326C33.4775 59.2555 42.7426 59.4489 50.7065 58.3465C51.8055 58.1944 54.4393 57.7585 54.8167 57.6663C54.915 57.6423 54.9954 57.6402 54.9954 57.6618C54.9954 57.6834 54.8151 58.3397 54.5947 59.1203C51.8402 68.8739 47.1092 75.5136 41.9697 76.8389C37.9046 77.8871 33.8472 75.6824 30.367 70.5341C29.9775 69.9579 29.6588 69.4669 29.6588 69.4432C29.6588 69.4193 29.5217 69.1758 29.3542 68.902C28.3718 67.2965 26.9523 64.0576 26.072 61.4133C25.8525 60.7542 24.9728 57.7642 24.9728 57.6777C24.9728 57.6202 25.0179 57.6265 26.0888 57.8326Z" fill="#F5F3EA"/>
</svg>
