<svg width="24" height="24" viewBox="0 0 24 24" fill="none" xmlns="http://www.w3.org/2000/svg">
<path fill-rule="evenodd" clip-rule="evenodd" d="M10.9626 0.0682743C-2.89853 1.3603 -3.94003 20.9257 9.69798 23.8266L10.513 24L12.0116 23.9965L13.5101 23.9929L14.2969 23.8248C19.2097 22.7746 22.7806 19.2378 23.825 14.3875L24 13.575V12.0113V10.4475L23.8265 9.67727C22.61 4.27877 18.3624 0.550132 12.8733 0.0623916C11.9263 -0.0217528 11.9288 -0.0217528 10.9626 0.0682743ZM17.7095 7.46561C17.9686 7.72311 17.9646 7.75617 17.2905 10.9064C16.9588 12.4561 16.6571 13.8747 16.62 14.059C16.5828 14.2433 16.3829 15.1801 16.1756 16.1407L15.7987 17.8873L15.617 18.0678L15.4354 18.2483L15.1697 18.1988C14.9912 18.1655 14.3944 17.7744 13.3491 17.0055L11.7943 15.8617L10.9677 16.6388C10.2441 17.3189 9.87009 17.5777 9.76362 17.4718C9.74676 17.455 9.7816 16.873 9.84102 16.1784C9.90051 15.4837 9.94959 14.8252 9.95011 14.715L9.95109 14.5146L12.4799 12.2154C13.8708 10.9508 15.152 9.78889 15.3271 9.63334C15.669 9.32967 15.7096 9.23868 15.5336 9.17151C15.4099 9.1243 15.3233 9.17613 11.1397 11.7997L8.24491 13.615L8.05227 13.5423C7.94625 13.5022 7.22597 13.2803 6.45145 13.0491C3.88143 12.2818 3.51998 12.545 11.1969 9.59372C17.5804 7.13968 17.4308 7.18861 17.7095 7.46561Z" fill="black"/>
</svg>
