<svg width="24" height="20" viewBox="0 0 24 20" fill="none" xmlns="http://www.w3.org/2000/svg">
<path d="M23.8555 2.40072C23.7244 2.27368 23.5367 2.23179 23.3657 2.29123L22.5564 2.5705C23.0331 1.99361 23.3849 1.39111 23.5701 0.819949C23.6239 0.653456 23.575 0.469042 23.4459 0.35054C23.3161 0.231241 23.1276 0.197464 22.9639 0.265863C21.8289 0.741793 20.8245 1.15622 20.0258 1.40415C19.9961 1.41354 19.9656 1.40945 19.935 1.39233C19.2983 1.0357 17.7045 0.216604 16.5723 0.229646C13.7091 0.282141 11.3793 2.72888 11.3793 5.68405V5.84566C7.16325 5.02943 4.83337 3.81664 2.31055 1.17006L1.91648 0.756429L1.65428 1.26407C0.284808 3.91314 1.25576 6.2874 2.8561 7.88651C2.14692 7.77781 1.63191 7.54944 1.19834 7.17123C1.03185 7.02712 0.795687 7.0092 0.610054 7.12727C0.427282 7.24371 0.343824 7.46153 0.40284 7.66912C0.941445 9.57481 2.38382 11.1397 3.90642 12.0748C3.17079 12.074 2.56542 11.9922 1.95678 11.601C1.77968 11.487 1.54925 11.4988 1.38397 11.6294C1.21992 11.7597 1.15682 11.9796 1.22682 12.177C1.96898 14.2614 3.35679 15.3577 5.65655 15.6309C4.4743 16.3222 2.94035 16.8685 0.545314 16.9186C0.311642 16.9235 0.104803 17.0753 0.0299305 17.2959C-0.0449422 17.5158 0.0234565 17.7519 0.203789 17.8968C1.65921 19.0701 4.92377 19.7708 8.93664 19.7708C16.1201 19.7708 21.9641 13.3788 21.9641 5.52201V5.384C22.8935 4.93983 23.6027 4.06336 23.9776 2.88477C24.0322 2.71297 23.9854 2.52734 23.8555 2.40072Z" fill="black"/>
</svg>
