<svg width="22" height="24" viewBox="0 0 22 24" fill="none" xmlns="http://www.w3.org/2000/svg">
<path fill-rule="evenodd" clip-rule="evenodd" d="M8.95947 0.0142446C2.22163 0.740698 0.0049996 3.40686 5.47496e-06 10.7905C-0.0036373 16.083 1.81064 19.4858 5.06699 20.2939L5.34607 20.3631V21.762C5.34607 23.4058 5.35577 23.4723 5.63943 23.7711L5.85665 24H6.18362H6.51059L6.79831 23.7721C7.12933 23.5098 7.72627 22.8607 8.56282 21.8531L9.14749 21.149L10.963 21.1435C19.3013 21.1184 22.0111 18.4584 22 10.3094C21.9909 3.64363 19.9632 1.09129 13.9242 0.144084L13.131 0.0196619L11.1628 0.00429316C10.0802 -0.00418616 9.08873 0.000289034 8.95947 0.0142446ZM12.4554 1.74326C18.4059 2.19378 20.2925 4.28611 20.2856 10.4272C20.2809 14.6393 19.5496 16.7369 17.6551 17.9728C16.3711 18.8104 13.6943 19.3559 10.7945 19.3709L9.51558 19.3776L8.66787 20.4237C5.80401 23.9579 5.99237 23.9256 5.99237 20.8822V18.7751L5.62516 18.6418C2.54689 17.5247 1.43121 14.8067 1.75782 9.22008C1.91099 6.59938 2.49278 4.89168 3.61722 3.76199C5.12486 2.24719 8.607 1.45184 12.4554 1.74326ZM10.604 4.41377L10.5124 4.55374L10.5822 4.70725C10.6579 4.8739 10.7187 4.89109 11.4492 4.95257C14.1262 5.17774 16.0901 7.31824 16.2515 10.1868C16.293 10.9242 16.3646 11.1044 16.6165 11.1044C16.952 11.1044 16.9943 10.8125 16.8299 9.63126C16.3961 6.51464 14.0009 4.27381 11.1033 4.27381H10.6954L10.604 4.41377ZM6.62093 5.00586C5.75166 5.3193 4.87786 6.37674 4.87663 7.11691L4.87604 7.45744L5.26264 8.35218C7.04725 12.4821 8.76729 14.3735 12.4847 16.2935C14.3745 17.2696 14.8369 17.2807 15.7162 16.3714C16.9377 15.1082 16.8285 14.6063 15.0528 13.325C13.7777 12.4048 13.3689 12.3766 12.7439 13.1653C12.276 13.7558 12.0659 13.8133 11.3558 13.5454C10.035 13.0472 8.84655 11.7943 8.25166 10.273C7.98738 9.59711 8.04114 9.3836 8.59108 8.92507C9.4895 8.176 9.35624 7.58221 7.86294 5.6802C7.3093 4.97494 7.06881 4.84439 6.62093 5.00586ZM11.2324 5.84672C11.1116 5.89253 11.041 6.13932 11.1025 6.30125L11.1568 6.4444L11.4389 6.4822C13.4605 6.75318 14.7468 8.07967 14.7468 9.89353C14.7468 10.4495 15.0283 10.7041 15.3045 10.3982L15.4105 10.2808L15.375 9.76517C15.2433 7.85067 14.0735 6.41407 12.2981 5.98669C11.7729 5.86026 11.345 5.80409 11.2324 5.84672ZM11.6181 7.55489C11.383 7.81557 11.5345 8.06442 11.9677 8.12919C12.7453 8.24549 13.1222 8.64242 13.2222 9.45031C13.2843 9.95283 13.5257 10.141 13.7805 9.88564L13.8802 9.78578L13.8432 9.37041C13.7488 8.30914 13.0654 7.599 12.0205 7.47616L11.7209 7.44089L11.6181 7.55489Z" fill="black"/>
</svg>
