<svg width="50" height="50" viewBox="0 0 50 50" fill="none" xmlns="http://www.w3.org/2000/svg">
<path d="M46.6667 41.6666H3.33333C1.49306 41.6666 0 40.1735 0 38.3333V11.6666C0 9.82631 1.49306 8.33325 3.33333 8.33325H46.6667C48.5069 8.33325 50 9.82631 50 11.6666V38.3333C50 40.1735 48.5069 41.6666 46.6667 41.6666ZM24.7778 28.836L24.2792 31.961C25.3764 32.4305 26.6528 32.7041 27.9931 32.7041C28.1 32.7041 28.2056 32.7027 28.3111 32.6985H28.2958C28.4181 32.7055 28.5597 32.7096 28.7042 32.7096C30.2444 32.7096 31.6722 32.2263 32.8444 31.4027L32.8208 31.418C33.8847 30.6291 34.5681 29.3777 34.5681 27.9666C34.5681 27.9596 34.5681 27.9527 34.5681 27.9458V27.9471C34.5681 26.4194 33.5458 25.1499 31.5306 24.1694C30.9389 23.8805 30.4333 23.5777 29.9583 23.236L29.9903 23.2583C29.7153 23.0777 29.5319 22.7791 29.5139 22.436V22.4333C29.5361 22.0721 29.7431 21.7638 30.0403 21.5999L30.0458 21.5971C30.4375 21.3694 30.9069 21.2346 31.4097 21.2346C31.4681 21.2346 31.5264 21.236 31.5847 21.2402H31.5764H31.6875C31.7194 21.2402 31.7569 21.2388 31.7944 21.2388C32.6889 21.2388 33.5375 21.4319 34.3028 21.7777L34.2639 21.7624L34.5889 21.936L35.0875 18.9208C34.15 18.5499 33.0625 18.3346 31.925 18.3346C31.9028 18.3346 31.8792 18.3346 31.8569 18.3346H31.8611C31.7722 18.3305 31.6681 18.3277 31.5639 18.3277C30.0417 18.3277 28.6306 18.8096 27.4764 19.6291L27.4986 19.6138C26.4542 20.3583 25.7806 21.5638 25.7806 22.9277V22.9346C25.7667 24.4041 26.825 25.6735 28.9278 26.7124C29.4833 26.9555 29.9625 27.2527 30.3917 27.6096L30.3819 27.6013C30.625 27.8069 30.7819 28.1083 30.7944 28.4458V28.4485V28.4513C30.7944 28.8944 30.5306 29.2749 30.15 29.4458L30.1431 29.4485C29.7264 29.668 29.2319 29.7958 28.7069 29.7958C28.6861 29.7958 28.6639 29.7958 28.6431 29.7958H28.6458C28.6153 29.7958 28.5778 29.7958 28.5417 29.7958C27.3514 29.7958 26.2236 29.5319 25.2125 29.0596L25.2611 29.0805L24.7847 28.8416L24.7778 28.836ZM38.8403 30.4208H43.4444C43.5185 30.7383 43.6634 31.4328 43.8792 32.5041H47.2222L44.3139 18.5721H41.5361C41.4875 18.568 41.4306 18.5652 41.3722 18.5652C40.5917 18.5652 39.9236 19.0485 39.6514 19.7319L39.6472 19.7444L34.3139 32.5041H38.0917L38.85 30.4221L38.8403 30.4208ZM20.6819 18.5721L18.4236 32.5041H22.0264L24.2833 18.5721H20.6819ZM6.83611 21.4152L9.76667 32.4819H13.5639L19.2236 18.5721H15.4097L11.8903 28.0777L11.5208 26.1458L10.2653 19.7444C10.1389 19.0652 9.55139 18.5569 8.84444 18.5569C8.77222 18.5569 8.7 18.5624 8.63056 18.5721L8.63889 18.5708H2.82361L2.78056 18.8527C7.25833 19.9902 10.2 22.4444 11.525 26.1444C11.0958 25.0444 10.4694 24.1069 9.68333 23.3333L9.68194 23.3319C8.89444 22.5235 7.94861 21.8749 6.89444 21.4319L6.83889 21.411L6.83611 21.4152ZM42.8597 27.5555H39.8597C40.0625 27.0203 40.5403 25.724 41.2931 23.6666L41.3569 23.4708C41.4153 23.3263 41.4875 23.1374 41.5792 22.9069C41.6708 22.6763 41.7319 22.4874 41.7736 22.343L42.0347 23.536L42.8583 27.5499L42.8597 27.5555Z" fill="#F5F3EA"/>
</svg>
