<svg width="30" height="20" viewBox="0 0 30 20" fill="none" xmlns="http://www.w3.org/2000/svg">
<path fill-rule="evenodd" clip-rule="evenodd" d="M0.333008 10C2.63967 4.14667 8.33301 0 14.9997 0C21.6663 0 27.3597 4.14667 29.6663 10C27.3597 15.8533 21.6663 20 14.9997 20C8.33301 20 2.63967 15.8533 0.333008 10ZM26.7597 10C24.5597 5.50667 20.053 2.66667 14.9997 2.66667C9.94634 2.66667 5.43967 5.50667 3.23967 10C5.43967 14.4933 9.94634 17.3333 14.9997 17.3333C20.053 17.3333 24.5597 14.4933 26.7597 10ZM14.9997 6.66667C16.8397 6.66667 18.333 8.16 18.333 10C18.333 11.84 16.8397 13.3333 14.9997 13.3333C13.1597 13.3333 11.6663 11.84 11.6663 10C11.6663 8.16 13.1597 6.66667 14.9997 6.66667ZM8.99967 10C8.99967 6.69333 11.693 4 14.9997 4C18.3063 4 20.9997 6.69333 20.9997 10C20.9997 13.3067 18.3063 16 14.9997 16C11.693 16 8.99967 13.3067 8.99967 10Z" fill="none"/>
</svg>
